<svg width="243" height="121" viewBox="0 0 243 121" fill="none" xmlns="http://www.w3.org/2000/svg">
<path d="M226.317 24.9238H26.3288V35.8054H58.3372V43.8552H26.3288V62.3571H16.688V16.752H226.317V24.9238Z" fill="#FAFAFA"/>
<path d="M77.8545 29.8078C82.4444 29.8078 86.023 31.2343 88.5904 34.0872C91.1578 36.9402 92.4415 40.4578 92.4415 44.6401C92.4415 45.5239 92.3576 46.8125 92.19 48.5059H71.6562C71.6911 49.4807 71.9396 50.4354 72.3836 51.3011C72.8276 52.1668 73.456 52.9219 74.2235 53.5119C75.764 54.6927 77.8091 55.283 80.3591 55.283C82.4457 55.2797 84.5252 55.036 86.5574 54.5565C88.1678 54.2502 89.7272 53.7146 91.1892 52.9657V60.9837C88.2655 62.5039 84.3621 63.264 79.4788 63.264C74.1834 63.264 69.9376 61.7014 66.7415 58.5762C63.5453 55.451 61.9473 51.4367 61.9473 46.5332C61.9473 41.7606 63.472 37.7781 66.5214 34.5857C67.9757 33.0321 69.7357 31.8042 71.6877 30.9812C73.6397 30.1582 75.7405 29.7585 77.8545 29.8078ZM83.4871 43.6219C83.6183 41.9938 83.1121 40.3788 82.0776 39.125C81.5484 38.5088 80.8873 38.0228 80.1446 37.704C79.402 37.3851 78.5973 37.2418 77.7917 37.2849C76.9847 37.2511 76.1801 37.3953 75.4337 37.7075C74.6873 38.0198 74.0169 38.4926 73.469 39.0932C72.3659 40.3454 71.7253 41.9457 71.6562 43.6219H83.4871Z" fill="#FAFAFA"/>
<path d="M98.8914 62.3839V30.6936H107.411L107.599 33.8011C107.582 34.4982 107.603 35.1957 107.662 35.8904C108.641 34.1471 109.988 32.6442 111.608 31.489C113.165 30.3784 115.027 29.7904 116.931 29.808C117.604 29.7578 118.281 29.8224 118.933 29.9989V39.2419C118.273 38.9568 117.558 38.8298 116.842 38.8707C115.674 38.8568 114.518 39.1055 113.457 39.5989C112.396 40.0923 111.457 40.818 110.707 41.7237C109.007 43.7035 108.112 46.2616 108.202 48.8826V62.3839H98.8914Z" fill="#FAFAFA"/>
<path d="M126.661 34.5593C129.805 31.3775 133.781 29.7866 138.591 29.7866C143.401 29.7866 147.387 31.3775 150.548 34.5593C153.723 37.741 155.311 41.7341 155.311 46.5386C155.311 51.343 153.723 55.3361 150.548 58.5179C147.38 61.6996 143.394 63.2905 138.591 63.2905C133.788 63.2905 129.812 61.6996 126.661 58.5179C123.517 55.3361 121.945 51.343 121.945 46.5386C121.945 41.7341 123.517 37.741 126.661 34.5593ZM132.985 52.8438C133.69 53.6357 134.556 54.2638 135.524 54.6849C136.492 55.106 137.538 55.3101 138.591 55.2831C139.648 55.3086 140.698 55.104 141.67 54.6832C142.641 54.2623 143.513 53.635 144.224 52.8438C145.765 51.1232 146.576 48.8588 146.482 46.5386C146.575 44.2186 145.764 41.9545 144.224 40.2334C143.513 39.4421 142.641 38.8148 141.67 38.394C140.698 37.9731 139.648 37.7685 138.591 37.794C137.538 37.7671 136.492 37.9712 135.524 38.3922C134.556 38.8133 133.69 39.4414 132.985 40.2334C131.501 41.8596 130.76 43.9614 130.763 46.5386C130.767 49.1158 131.507 51.2175 132.985 52.8438Z" fill="#FAFAFA"/>
<path d="M190.248 30.6934L179.769 45.9075L190.73 62.3837H180.461L174.095 52.7482L167.833 62.3837H157.501L168.19 46.7931L157.752 30.6934H168.19L173.827 40.3924L179.523 30.6934H190.248Z" fill="#FAFAFA"/>
<path d="M197.668 34.5593C200.811 31.3775 204.788 29.7866 209.598 29.7866C214.408 29.7866 218.393 31.3775 221.555 34.5593C224.73 37.741 226.317 41.7341 226.317 46.5386C226.317 51.343 224.73 55.3361 221.555 58.5179C218.383 61.6996 214.397 63.2905 209.598 63.2905C204.799 63.2905 200.822 61.6996 197.668 58.5179C194.524 55.3361 192.952 51.343 192.952 46.5386C192.952 41.7341 194.524 37.741 197.668 34.5593ZM203.992 52.8438C204.697 53.636 205.563 54.2643 206.531 54.6854C207.498 55.1065 208.545 55.3104 209.598 55.2831C210.655 55.3079 211.704 55.103 212.676 54.6822C213.648 54.2614 214.519 53.6345 215.23 52.8438C216.736 51.2211 217.487 49.1193 217.483 46.5386C217.48 43.9578 216.729 41.8561 215.23 40.2334C214.517 39.4406 213.643 38.8125 212.669 38.3916C211.694 37.9707 210.641 37.7669 209.582 37.794C208.529 37.7667 207.483 37.9707 206.515 38.3918C205.547 38.8128 204.681 39.4411 203.976 40.2334C202.495 41.8596 201.754 43.9614 201.754 46.5386C201.754 49.1158 202.5 51.2175 203.992 52.8438Z" fill="#FAFAFA"/>
<path d="M1.23295 104V93.8182H4.6733C5.47206 93.8182 6.125 93.9624 6.6321 94.2507C7.14252 94.5357 7.52036 94.9219 7.76562 95.4091C8.01089 95.8963 8.13352 96.4399 8.13352 97.0398C8.13352 97.6397 8.01089 98.1849 7.76562 98.6754C7.52367 99.166 7.14915 99.5571 6.64205 99.8487C6.13494 100.137 5.48532 100.281 4.69318 100.281H2.22727V99.1875H4.65341C5.20028 99.1875 5.63944 99.093 5.97088 98.9041C6.30232 98.7152 6.54261 98.46 6.69176 98.1385C6.84422 97.8137 6.92045 97.4474 6.92045 97.0398C6.92045 96.6321 6.84422 96.2675 6.69176 95.946C6.54261 95.6245 6.30066 95.3726 5.96591 95.1903C5.63116 95.0047 5.18703 94.9119 4.63352 94.9119H2.46591V104H1.23295ZM9.96058 104V96.3636H11.0941V97.517H11.1737C11.3129 97.1392 11.5647 96.8326 11.9293 96.5973C12.2939 96.362 12.7049 96.2443 13.1623 96.2443C13.2485 96.2443 13.3562 96.246 13.4854 96.2493C13.6147 96.2526 13.7125 96.2576 13.7788 96.2642V97.4574C13.739 97.4474 13.6478 97.4325 13.5053 97.4126C13.3661 97.3894 13.2186 97.3778 13.0629 97.3778C12.6916 97.3778 12.3602 97.4557 12.0685 97.6115C11.7802 97.764 11.5515 97.9761 11.3825 98.2479C11.2167 98.5163 11.1339 98.8229 11.1339 99.1676V104H9.96058ZM18.1388 104.159C17.4031 104.159 16.7683 103.997 16.2347 103.672C15.7044 103.344 15.2951 102.886 15.0067 102.3C14.7217 101.71 14.5792 101.024 14.5792 100.241C14.5792 99.4593 14.7217 98.7699 15.0067 98.1733C15.2951 97.5734 15.6961 97.1061 16.2099 96.7713C16.7269 96.4332 17.3301 96.2642 18.0195 96.2642C18.4173 96.2642 18.81 96.3305 19.1978 96.4631C19.5856 96.5956 19.9386 96.8111 20.2567 97.1094C20.5749 97.4044 20.8285 97.7955 21.0174 98.2827C21.2063 98.7699 21.3008 99.3698 21.3008 100.082V100.58H15.4144V99.5653H20.1076C20.1076 99.1345 20.0214 98.75 19.8491 98.4119C19.68 98.0739 19.4381 97.8071 19.1232 97.6115C18.8117 97.416 18.4438 97.3182 18.0195 97.3182C17.5522 97.3182 17.1478 97.4342 16.8065 97.6662C16.4684 97.8949 16.2082 98.1932 16.0259 98.5611C15.8436 98.929 15.7525 99.3234 15.7525 99.7443V100.42C15.7525 100.997 15.8519 101.486 16.0508 101.887C16.253 102.285 16.533 102.588 16.891 102.797C17.2489 103.002 17.6649 103.105 18.1388 103.105C18.4471 103.105 18.7255 103.062 18.9741 102.976C19.226 102.886 19.4431 102.754 19.6254 102.578C19.8076 102.399 19.9485 102.177 20.0479 101.912L21.1815 102.23C21.0621 102.615 20.8616 102.953 20.5799 103.244C20.2982 103.533 19.9502 103.758 19.5359 103.92C19.1216 104.08 18.6559 104.159 18.1388 104.159ZM23.0856 104V96.3636H24.2191V97.5568H24.3185C24.4776 97.1491 24.7345 96.8326 25.0891 96.6072C25.4438 96.3786 25.8697 96.2642 26.3668 96.2642C26.8706 96.2642 27.2899 96.3786 27.6246 96.6072C27.9627 96.8326 28.2262 97.1491 28.4151 97.5568H28.4947C28.6902 97.1624 28.9835 96.8492 29.3746 96.6172C29.7657 96.3819 30.2347 96.2642 30.7816 96.2642C31.4644 96.2642 32.0228 96.478 32.457 96.9055C32.8912 97.3298 33.1083 97.991 33.1083 98.8892V104H31.935V98.8892C31.935 98.3258 31.7809 97.9231 31.4727 97.6811C31.1644 97.4392 30.8015 97.3182 30.3839 97.3182C29.8469 97.3182 29.431 97.4806 29.136 97.8054C28.841 98.1269 28.6935 98.5346 28.6935 99.0284V104H27.5004V98.7699C27.5004 98.3357 27.3595 97.986 27.0778 97.7209C26.796 97.4524 26.4331 97.3182 25.989 97.3182C25.6841 97.3182 25.399 97.3994 25.1339 97.5618C24.872 97.7242 24.6599 97.9496 24.4975 98.2379C24.3384 98.523 24.2589 98.8527 24.2589 99.2273V104H23.0856ZM35.2536 104V96.3636H36.4268V104H35.2536ZM35.8501 95.0909C35.6214 95.0909 35.4242 95.013 35.2585 94.8572C35.0961 94.7015 35.0149 94.5142 35.0149 94.2955C35.0149 94.0767 35.0961 93.8894 35.2585 93.7337C35.4242 93.5779 35.6214 93.5 35.8501 93.5C36.0788 93.5 36.2744 93.5779 36.4368 93.7337C36.6025 93.8894 36.6854 94.0767 36.6854 94.2955C36.6854 94.5142 36.6025 94.7015 36.4368 94.8572C36.2744 95.013 36.0788 95.0909 35.8501 95.0909ZM43.3883 100.878V96.3636H44.5616V104H43.3883V102.707H43.3088C43.1298 103.095 42.8514 103.425 42.4735 103.697C42.0957 103.965 41.6184 104.099 41.0417 104.099C40.5645 104.099 40.1402 103.995 39.769 103.786C39.3978 103.574 39.1061 103.256 38.894 102.832C38.6819 102.404 38.5758 101.866 38.5758 101.216V96.3636H39.7491V101.136C39.7491 101.693 39.9049 102.137 40.2164 102.469C40.5313 102.8 40.9324 102.966 41.4196 102.966C41.7112 102.966 42.0079 102.891 42.3095 102.742C42.6144 102.593 42.8696 102.364 43.0751 102.056C43.2839 101.748 43.3883 101.355 43.3883 100.878ZM46.7106 104V96.3636H47.8441V97.5568H47.9435C48.1026 97.1491 48.3595 96.8326 48.7141 96.6072C49.0688 96.3786 49.4947 96.2642 49.9918 96.2642C50.4956 96.2642 50.9149 96.3786 51.2496 96.6072C51.5877 96.8326 51.8512 97.1491 52.0401 97.5568H52.1197C52.3152 97.1624 52.6085 96.8492 52.9996 96.6172C53.3907 96.3819 53.8597 96.2642 54.4066 96.2642C55.0894 96.2642 55.6478 96.478 56.082 96.9055C56.5162 97.3298 56.7333 97.991 56.7333 98.8892V104H55.56V98.8892C55.56 98.3258 55.4059 97.9231 55.0977 97.6811C54.7894 97.4392 54.4265 97.3182 54.0089 97.3182C53.4719 97.3182 53.056 97.4806 52.761 97.8054C52.466 98.1269 52.3185 98.5346 52.3185 99.0284V104H51.1254V98.7699C51.1254 98.3357 50.9845 97.986 50.7028 97.7209C50.421 97.4524 50.0581 97.3182 49.614 97.3182C49.3091 97.3182 49.024 97.3994 48.7589 97.5618C48.497 97.7242 48.2849 97.9496 48.1225 98.2379C47.9634 98.523 47.8839 98.8527 47.8839 99.2273V104H46.7106ZM66.8729 93.8182H68.1058V101.097C68.1058 101.746 67.9865 102.298 67.7479 102.752C67.5092 103.206 67.1728 103.551 66.7386 103.786C66.3045 104.022 65.7924 104.139 65.2024 104.139C64.6456 104.139 64.1501 104.038 63.7159 103.836C63.2817 103.63 62.9403 103.339 62.6918 102.961C62.4432 102.583 62.3189 102.134 62.3189 101.614H63.532C63.532 101.902 63.6032 102.154 63.7457 102.369C63.8916 102.581 64.0904 102.747 64.3423 102.866C64.5942 102.986 64.8809 103.045 65.2024 103.045C65.5571 103.045 65.8587 102.971 66.1072 102.822C66.3558 102.673 66.5447 102.454 66.674 102.165C66.8066 101.874 66.8729 101.518 66.8729 101.097V93.8182ZM72.6648 104.179C72.1809 104.179 71.7417 104.088 71.3473 103.906C70.9529 103.72 70.6397 103.453 70.4077 103.105C70.1757 102.754 70.0597 102.33 70.0597 101.832C70.0597 101.395 70.1458 101.04 70.3182 100.768C70.4905 100.493 70.7209 100.278 71.0092 100.122C71.2976 99.9664 71.6158 99.8504 71.9638 99.7741C72.3151 99.6946 72.6681 99.6316 73.0227 99.5852C73.4867 99.5256 73.8629 99.4808 74.1513 99.451C74.4429 99.4179 74.6551 99.3632 74.7876 99.2869C74.9235 99.2107 74.9915 99.0781 74.9915 98.8892V98.8494C74.9915 98.3589 74.8572 97.9777 74.5888 97.706C74.3236 97.4342 73.9209 97.2983 73.3807 97.2983C72.8205 97.2983 72.3814 97.4209 72.0632 97.6662C71.745 97.9115 71.5213 98.1733 71.392 98.4517L70.2784 98.054C70.4773 97.59 70.7424 97.2287 71.0739 96.9702C71.4086 96.7083 71.7732 96.526 72.1676 96.4233C72.5653 96.3172 72.9564 96.2642 73.3409 96.2642C73.5862 96.2642 73.8679 96.294 74.1861 96.3537C74.5076 96.41 74.8175 96.5277 75.1158 96.7067C75.4174 96.8857 75.6676 97.1558 75.8665 97.517C76.0653 97.8783 76.1648 98.3622 76.1648 98.9688V104H74.9915V102.966H74.9318C74.8523 103.132 74.7197 103.309 74.5341 103.498C74.3485 103.687 74.1016 103.848 73.7933 103.98C73.4851 104.113 73.1089 104.179 72.6648 104.179ZM72.8438 103.125C73.3078 103.125 73.6989 103.034 74.017 102.852C74.3385 102.669 74.5805 102.434 74.7429 102.146C74.9086 101.857 74.9915 101.554 74.9915 101.236V100.162C74.9418 100.222 74.8324 100.276 74.6634 100.326C74.4976 100.372 74.3054 100.414 74.0866 100.45C73.8712 100.483 73.6607 100.513 73.4553 100.54C73.2531 100.563 73.089 100.583 72.9631 100.599C72.6581 100.639 72.3731 100.704 72.108 100.793C71.8461 100.879 71.634 101.01 71.4716 101.186C71.3125 101.358 71.233 101.594 71.233 101.892C71.233 102.3 71.3838 102.608 71.6854 102.817C71.9903 103.022 72.3764 103.125 72.8438 103.125ZM78.3063 106.864V96.3636H79.4398V97.5767H79.579C79.6652 97.4441 79.7845 97.2751 79.937 97.0696C80.0927 96.8608 80.3148 96.6752 80.6032 96.5128C80.8948 96.3471 81.2892 96.2642 81.7864 96.2642C82.4294 96.2642 82.9962 96.425 83.4867 96.7464C83.9772 97.0679 84.36 97.5237 84.6351 98.1136C84.9102 98.7036 85.0478 99.3996 85.0478 100.202C85.0478 101.01 84.9102 101.711 84.6351 102.305C84.36 102.895 83.9789 103.352 83.4917 103.677C83.0044 103.998 82.4426 104.159 81.8063 104.159C81.3158 104.159 80.923 104.078 80.628 103.915C80.333 103.75 80.106 103.562 79.9469 103.354C79.7878 103.142 79.6652 102.966 79.579 102.827H79.4796V106.864H78.3063ZM79.4597 100.182C79.4597 100.759 79.5442 101.267 79.7132 101.708C79.8823 102.146 80.1292 102.489 80.454 102.737C80.7788 102.982 81.1766 103.105 81.6472 103.105C82.1377 103.105 82.5471 102.976 82.8752 102.717C83.2066 102.455 83.4552 102.104 83.6209 101.663C83.79 101.219 83.8745 100.725 83.8745 100.182C83.8745 99.6449 83.7916 99.161 83.6259 98.7301C83.4635 98.2959 83.2166 97.9529 82.8851 97.701C82.557 97.4458 82.1444 97.3182 81.6472 97.3182C81.1699 97.3182 80.7689 97.4392 80.4441 97.6811C80.1193 97.9197 79.874 98.2545 79.7083 98.6854C79.5426 99.1129 79.4597 99.6117 79.4597 100.182ZM89.0847 104.179C88.6008 104.179 88.1616 104.088 87.7672 103.906C87.3728 103.72 87.0596 103.453 86.8276 103.105C86.5956 102.754 86.4796 102.33 86.4796 101.832C86.4796 101.395 86.5658 101.04 86.7381 100.768C86.9105 100.493 87.1408 100.278 87.4292 100.122C87.7175 99.9664 88.0357 99.8504 88.3837 99.7741C88.735 99.6946 89.088 99.6316 89.4426 99.5852C89.9067 99.5256 90.2828 99.4808 90.5712 99.451C90.8629 99.4179 91.075 99.3632 91.2076 99.2869C91.3435 99.2107 91.4114 99.0781 91.4114 98.8892V98.8494C91.4114 98.3589 91.2772 97.9777 91.0087 97.706C90.7435 97.4342 90.3409 97.2983 89.8006 97.2983C89.2405 97.2983 88.8013 97.4209 88.4831 97.6662C88.165 97.9115 87.9412 98.1733 87.812 98.4517L86.6983 98.054C86.8972 97.59 87.1623 97.2287 87.4938 96.9702C87.8285 96.7083 88.1931 96.526 88.5875 96.4233C88.9853 96.3172 89.3764 96.2642 89.7608 96.2642C90.0061 96.2642 90.2878 96.294 90.606 96.3537C90.9275 96.41 91.2374 96.5277 91.5357 96.7067C91.8373 96.8857 92.0875 97.1558 92.2864 97.517C92.4853 97.8783 92.5847 98.3622 92.5847 98.9688V104H91.4114V102.966H91.3517C91.2722 103.132 91.1396 103.309 90.954 103.498C90.7684 103.687 90.5215 103.848 90.2132 103.98C89.905 104.113 89.5288 104.179 89.0847 104.179ZM89.2637 103.125C89.7277 103.125 90.1188 103.034 90.437 102.852C90.7585 102.669 91.0004 102.434 91.1628 102.146C91.3285 101.857 91.4114 101.554 91.4114 101.236V100.162C91.3617 100.222 91.2523 100.276 91.0833 100.326C90.9176 100.372 90.7253 100.414 90.5066 100.45C90.2911 100.483 90.0807 100.513 89.8752 100.54C89.673 100.563 89.5089 100.583 89.383 100.599C89.0781 100.639 88.793 100.704 88.5279 100.793C88.266 100.879 88.0539 101.01 87.8915 101.186C87.7324 101.358 87.6529 101.594 87.6529 101.892C87.6529 102.3 87.8037 102.608 88.1053 102.817C88.4102 103.022 88.7963 103.125 89.2637 103.125ZM95.8995 99.4062V104H94.7262V96.3636H95.8597V97.5568H95.9592C96.1381 97.169 96.4099 96.8575 96.7745 96.6222C97.1391 96.3835 97.6097 96.2642 98.1864 96.2642C98.7035 96.2642 99.1559 96.3703 99.5437 96.5824C99.9315 96.7912 100.233 97.1094 100.449 97.5369C100.664 97.9612 100.772 98.4981 100.772 99.1477V104H99.5984V99.2273C99.5984 98.6274 99.4426 98.16 99.131 97.8253C98.8195 97.4872 98.3919 97.3182 97.8484 97.3182C97.4738 97.3182 97.1391 97.3994 96.8441 97.5618C96.5524 97.7242 96.3221 97.9612 96.1531 98.2727C95.984 98.5843 95.8995 98.9621 95.8995 99.4062ZM106.117 104.159C105.382 104.159 104.747 103.997 104.213 103.672C103.683 103.344 103.274 102.886 102.985 102.3C102.7 101.71 102.558 101.024 102.558 100.241C102.558 99.4593 102.7 98.7699 102.985 98.1733C103.274 97.5734 103.675 97.1061 104.188 96.7713C104.705 96.4332 105.309 96.2642 105.998 96.2642C106.396 96.2642 106.789 96.3305 107.176 96.4631C107.564 96.5956 107.917 96.8111 108.235 97.1094C108.553 97.4044 108.807 97.7955 108.996 98.2827C109.185 98.7699 109.279 99.3698 109.279 100.082V100.58H103.393V99.5653H108.086C108.086 99.1345 108 98.75 107.828 98.4119C107.659 98.0739 107.417 97.8071 107.102 97.6115C106.79 97.416 106.422 97.3182 105.998 97.3182C105.531 97.3182 105.126 97.4342 104.785 97.6662C104.447 97.8949 104.187 98.1932 104.004 98.5611C103.822 98.929 103.731 99.3234 103.731 99.7443V100.42C103.731 100.997 103.83 101.486 104.029 101.887C104.231 102.285 104.512 102.588 104.869 102.797C105.227 103.002 105.643 103.105 106.117 103.105C106.426 103.105 106.704 103.062 106.953 102.976C107.204 102.886 107.422 102.754 107.604 102.578C107.786 102.399 107.927 102.177 108.026 101.912L109.16 102.23C109.041 102.615 108.84 102.953 108.558 103.244C108.277 103.533 107.929 103.758 107.514 103.92C107.1 104.08 106.634 104.159 106.117 104.159ZM116.473 98.0739L115.419 98.3722C115.353 98.1965 115.255 98.0258 115.126 97.8601C115 97.6911 114.828 97.5518 114.609 97.4425C114.39 97.3331 114.11 97.2784 113.769 97.2784C113.301 97.2784 112.912 97.3861 112.6 97.6016C112.292 97.8137 112.138 98.0838 112.138 98.4119C112.138 98.7036 112.244 98.9339 112.456 99.103C112.668 99.272 113 99.4129 113.45 99.5256L114.584 99.804C115.267 99.9697 115.776 100.223 116.11 100.565C116.445 100.903 116.612 101.339 116.612 101.872C116.612 102.31 116.486 102.701 116.235 103.045C115.986 103.39 115.638 103.662 115.191 103.861C114.743 104.06 114.223 104.159 113.629 104.159C112.851 104.159 112.206 103.99 111.695 103.652C111.185 103.314 110.862 102.82 110.726 102.17L111.84 101.892C111.946 102.303 112.146 102.611 112.441 102.817C112.74 103.022 113.129 103.125 113.61 103.125C114.156 103.125 114.591 103.009 114.912 102.777C115.237 102.542 115.399 102.26 115.399 101.932C115.399 101.667 115.307 101.445 115.121 101.266C114.935 101.083 114.65 100.947 114.266 100.858L112.993 100.56C112.294 100.394 111.78 100.137 111.452 99.7891C111.127 99.4377 110.965 98.9986 110.965 98.4716C110.965 98.0407 111.086 97.6596 111.328 97.3281C111.573 96.9967 111.906 96.7365 112.327 96.5476C112.751 96.3587 113.232 96.2642 113.769 96.2642C114.524 96.2642 115.118 96.4299 115.548 96.7614C115.983 97.0928 116.291 97.5303 116.473 98.0739ZM121.58 104.159C120.844 104.159 120.21 103.997 119.676 103.672C119.146 103.344 118.737 102.886 118.448 102.3C118.163 101.71 118.021 101.024 118.021 100.241C118.021 99.4593 118.163 98.7699 118.448 98.1733C118.737 97.5734 119.138 97.1061 119.651 96.7713C120.168 96.4332 120.772 96.2642 121.461 96.2642C121.859 96.2642 122.251 96.3305 122.639 96.4631C123.027 96.5956 123.38 96.8111 123.698 97.1094C124.016 97.4044 124.27 97.7955 124.459 98.2827C124.648 98.7699 124.742 99.3698 124.742 100.082V100.58H118.856V99.5653H123.549C123.549 99.1345 123.463 98.75 123.29 98.4119C123.121 98.0739 122.879 97.8071 122.565 97.6115C122.253 97.416 121.885 97.3182 121.461 97.3182C120.994 97.3182 120.589 97.4342 120.248 97.6662C119.91 97.8949 119.65 98.1932 119.467 98.5611C119.285 98.929 119.194 99.3234 119.194 99.7443V100.42C119.194 100.997 119.293 101.486 119.492 101.887C119.694 102.285 119.974 102.588 120.332 102.797C120.69 103.002 121.106 103.105 121.58 103.105C121.888 103.105 122.167 103.062 122.415 102.976C122.667 102.886 122.884 102.754 123.067 102.578C123.249 102.399 123.39 102.177 123.489 101.912L124.623 102.23C124.504 102.615 124.303 102.953 124.021 103.244C123.74 103.533 123.392 103.758 122.977 103.92C122.563 104.08 122.097 104.159 121.58 104.159ZM130.464 104V96.3636H131.638V104H130.464ZM131.061 95.0909C130.832 95.0909 130.635 95.013 130.469 94.8572C130.307 94.7015 130.226 94.5142 130.226 94.2955C130.226 94.0767 130.307 93.8894 130.469 93.7337C130.635 93.5779 130.832 93.5 131.061 93.5C131.29 93.5 131.485 93.5779 131.648 93.7337C131.813 93.8894 131.896 94.0767 131.896 94.2955C131.896 94.5142 131.813 94.7015 131.648 94.8572C131.485 95.013 131.29 95.0909 131.061 95.0909ZM134.96 99.4062V104H133.787V96.3636H134.92V97.5568H135.02C135.199 97.169 135.47 96.8575 135.835 96.6222C136.2 96.3835 136.67 96.2642 137.247 96.2642C137.764 96.2642 138.216 96.3703 138.604 96.5824C138.992 96.7912 139.294 97.1094 139.509 97.5369C139.724 97.9612 139.832 98.4981 139.832 99.1477V104H138.659V99.2273C138.659 98.6274 138.503 98.16 138.192 97.8253C137.88 97.4872 137.452 97.3182 136.909 97.3182C136.534 97.3182 136.2 97.3994 135.905 97.5618C135.613 97.7242 135.383 97.9612 135.214 98.2727C135.045 98.5843 134.96 98.9621 134.96 99.4062ZM144.86 104.159C144.223 104.159 143.662 103.998 143.174 103.677C142.687 103.352 142.306 102.895 142.031 102.305C141.756 101.711 141.618 101.01 141.618 100.202C141.618 99.3996 141.756 98.7036 142.031 98.1136C142.306 97.5237 142.689 97.0679 143.179 96.7464C143.67 96.425 144.237 96.2642 144.88 96.2642C145.377 96.2642 145.77 96.3471 146.058 96.5128C146.35 96.6752 146.572 96.8608 146.724 97.0696C146.88 97.2751 147.001 97.4441 147.087 97.5767H147.186V93.8182H148.36V104H147.226V102.827H147.087C147.001 102.966 146.878 103.142 146.719 103.354C146.56 103.562 146.333 103.75 146.038 103.915C145.743 104.078 145.35 104.159 144.86 104.159ZM145.019 103.105C145.489 103.105 145.887 102.982 146.212 102.737C146.537 102.489 146.784 102.146 146.953 101.708C147.122 101.267 147.206 100.759 147.206 100.182C147.206 99.6117 147.123 99.1129 146.958 98.6854C146.792 98.2545 146.547 97.9197 146.222 97.6811C145.897 97.4392 145.496 97.3182 145.019 97.3182C144.522 97.3182 144.107 97.4458 143.776 97.701C143.448 97.9529 143.201 98.2959 143.035 98.7301C142.873 99.161 142.792 99.6449 142.792 100.182C142.792 100.725 142.874 101.219 143.04 101.663C143.209 102.104 143.458 102.455 143.786 102.717C144.117 102.976 144.528 103.105 145.019 103.105ZM155.484 100.878V96.3636H156.657V104H155.484V102.707H155.404C155.225 103.095 154.947 103.425 154.569 103.697C154.191 103.965 153.714 104.099 153.137 104.099C152.66 104.099 152.236 103.995 151.865 103.786C151.493 103.574 151.202 103.256 150.99 102.832C150.778 102.404 150.672 101.866 150.672 101.216V96.3636H151.845V101.136C151.845 101.693 152.001 102.137 152.312 102.469C152.627 102.8 153.028 102.966 153.515 102.966C153.807 102.966 154.104 102.891 154.405 102.742C154.71 102.593 154.965 102.364 155.171 102.056C155.38 101.748 155.484 101.355 155.484 100.878ZM164.215 98.0739L163.161 98.3722C163.095 98.1965 162.997 98.0258 162.868 97.8601C162.742 97.6911 162.57 97.5518 162.351 97.4425C162.132 97.3331 161.852 97.2784 161.511 97.2784C161.044 97.2784 160.654 97.3861 160.343 97.6016C160.034 97.8137 159.88 98.0838 159.88 98.4119C159.88 98.7036 159.986 98.9339 160.198 99.103C160.41 99.272 160.742 99.4129 161.193 99.5256L162.326 99.804C163.009 99.9697 163.518 100.223 163.852 100.565C164.187 100.903 164.355 101.339 164.355 101.872C164.355 102.31 164.229 102.701 163.977 103.045C163.728 103.39 163.38 103.662 162.933 103.861C162.485 104.06 161.965 104.159 161.372 104.159C160.593 104.159 159.948 103.99 159.438 103.652C158.927 103.314 158.604 102.82 158.468 102.17L159.582 101.892C159.688 102.303 159.888 102.611 160.183 102.817C160.482 103.022 160.871 103.125 161.352 103.125C161.899 103.125 162.333 103.009 162.654 102.777C162.979 102.542 163.142 102.26 163.142 101.932C163.142 101.667 163.049 101.445 162.863 101.266C162.677 101.083 162.392 100.947 162.008 100.858L160.735 100.56C160.036 100.394 159.522 100.137 159.194 99.7891C158.869 99.4377 158.707 98.9986 158.707 98.4716C158.707 98.0407 158.828 97.6596 159.07 97.3281C159.315 96.9967 159.648 96.7365 160.069 96.5476C160.493 96.3587 160.974 96.2642 161.511 96.2642C162.267 96.2642 162.86 96.4299 163.291 96.7614C163.725 97.0928 164.033 97.5303 164.215 98.0739ZM169.442 96.3636V97.358H165.484V96.3636H169.442ZM166.638 94.5341H167.811V101.812C167.811 102.144 167.859 102.393 167.955 102.558C168.055 102.721 168.181 102.83 168.333 102.886C168.489 102.939 168.653 102.966 168.825 102.966C168.955 102.966 169.061 102.959 169.143 102.946C169.226 102.929 169.293 102.916 169.342 102.906L169.581 103.96C169.501 103.99 169.39 104.02 169.248 104.05C169.105 104.083 168.925 104.099 168.706 104.099C168.375 104.099 168.05 104.028 167.732 103.886C167.417 103.743 167.155 103.526 166.946 103.234C166.741 102.943 166.638 102.575 166.638 102.131V94.5341ZM171.207 104V96.3636H172.34V97.517H172.42C172.559 97.1392 172.811 96.8326 173.175 96.5973C173.54 96.362 173.951 96.2443 174.408 96.2443C174.495 96.2443 174.602 96.246 174.732 96.2493C174.861 96.2526 174.959 96.2576 175.025 96.2642V97.4574C174.985 97.4474 174.894 97.4325 174.751 97.4126C174.612 97.3894 174.465 97.3778 174.309 97.3778C173.938 97.3778 173.606 97.4557 173.315 97.6115C173.026 97.764 172.798 97.9761 172.629 98.2479C172.463 98.5163 172.38 98.8229 172.38 99.1676V104H171.207ZM176.416 104V96.3636H177.589V104H176.416ZM177.012 95.0909C176.784 95.0909 176.586 95.013 176.421 94.8572C176.258 94.7015 176.177 94.5142 176.177 94.2955C176.177 94.0767 176.258 93.8894 176.421 93.7337C176.586 93.5779 176.784 93.5 177.012 93.5C177.241 93.5 177.436 93.5779 177.599 93.7337C177.765 93.8894 177.847 94.0767 177.847 94.2955C177.847 94.5142 177.765 94.7015 177.599 94.8572C177.436 95.013 177.241 95.0909 177.012 95.0909ZM181.985 104.179C181.501 104.179 181.062 104.088 180.668 103.906C180.273 103.72 179.96 103.453 179.728 103.105C179.496 102.754 179.38 102.33 179.38 101.832C179.38 101.395 179.466 101.04 179.638 100.768C179.811 100.493 180.041 100.278 180.33 100.122C180.618 99.9664 180.936 99.8504 181.284 99.7741C181.635 99.6946 181.988 99.6316 182.343 99.5852C182.807 99.5256 183.183 99.4808 183.472 99.451C183.763 99.4179 183.975 99.3632 184.108 99.2869C184.244 99.2107 184.312 99.0781 184.312 98.8892V98.8494C184.312 98.3589 184.178 97.9777 183.909 97.706C183.644 97.4342 183.241 97.2983 182.701 97.2983C182.141 97.2983 181.702 97.4209 181.384 97.6662C181.065 97.9115 180.842 98.1733 180.712 98.4517L179.599 98.054C179.798 97.59 180.063 97.2287 180.394 96.9702C180.729 96.7083 181.094 96.526 181.488 96.4233C181.886 96.3172 182.277 96.2642 182.661 96.2642C182.906 96.2642 183.188 96.294 183.506 96.3537C183.828 96.41 184.138 96.5277 184.436 96.7067C184.738 96.8857 184.988 97.1558 185.187 97.517C185.386 97.8783 185.485 98.3622 185.485 98.9688V104H184.312V102.966H184.252C184.173 103.132 184.04 103.309 183.854 103.498C183.669 103.687 183.422 103.848 183.114 103.98C182.805 104.113 182.429 104.179 181.985 104.179ZM182.164 103.125C182.628 103.125 183.019 103.034 183.337 102.852C183.659 102.669 183.901 102.434 184.063 102.146C184.229 101.857 184.312 101.554 184.312 101.236V100.162C184.262 100.222 184.153 100.276 183.984 100.326C183.818 100.372 183.626 100.414 183.407 100.45C183.192 100.483 182.981 100.513 182.776 100.54C182.573 100.563 182.409 100.583 182.283 100.599C181.978 100.639 181.693 100.704 181.428 100.793C181.166 100.879 180.954 101.01 180.792 101.186C180.633 101.358 180.553 101.594 180.553 101.892C180.553 102.3 180.704 102.608 181.006 102.817C181.311 103.022 181.697 103.125 182.164 103.125ZM188.8 93.8182V104H187.627V93.8182H188.8ZM4.27557 118.159C3.53977 118.159 2.90507 117.997 2.37145 117.672C1.84115 117.344 1.43182 116.886 1.14347 116.3C0.858428 115.71 0.715909 115.024 0.715909 114.241C0.715909 113.459 0.858428 112.77 1.14347 112.173C1.43182 111.573 1.83286 111.106 2.34659 110.771C2.86364 110.433 3.46686 110.264 4.15625 110.264C4.55398 110.264 4.94673 110.33 5.33452 110.463C5.7223 110.596 6.07528 110.811 6.39347 111.109C6.71165 111.404 6.9652 111.795 7.15412 112.283C7.34304 112.77 7.4375 113.37 7.4375 114.082V114.58H1.55114V113.565H6.24432C6.24432 113.134 6.15814 112.75 5.9858 112.412C5.81676 112.074 5.57481 111.807 5.25994 111.612C4.94839 111.416 4.58049 111.318 4.15625 111.318C3.68892 111.318 3.28456 111.434 2.94318 111.666C2.60511 111.895 2.34493 112.193 2.16264 112.561C1.98035 112.929 1.8892 113.323 1.8892 113.744V114.42C1.8892 114.997 1.98864 115.486 2.1875 115.887C2.38968 116.285 2.66974 116.588 3.0277 116.797C3.38565 117.002 3.80161 117.105 4.27557 117.105C4.58381 117.105 4.86222 117.062 5.1108 116.976C5.36269 116.886 5.57978 116.754 5.76207 116.578C5.94437 116.399 6.08523 116.177 6.18466 115.912L7.31818 116.23C7.19886 116.615 6.99834 116.953 6.71662 117.244C6.4349 117.533 6.08688 117.758 5.67259 117.92C5.25829 118.08 4.79261 118.159 4.27557 118.159ZM14.4325 120.864V116.827H14.3331C14.2469 116.966 14.1243 117.142 13.9652 117.354C13.8061 117.562 13.5791 117.75 13.2841 117.915C12.9891 118.078 12.5964 118.159 12.1058 118.159C11.4695 118.159 10.9077 117.998 10.4205 117.677C9.93324 117.352 9.55208 116.895 9.27699 116.305C9.00189 115.711 8.86435 115.01 8.86435 114.202C8.86435 113.4 9.00189 112.704 9.27699 112.114C9.55208 111.524 9.9349 111.068 10.4254 110.746C10.916 110.425 11.4827 110.264 12.1257 110.264C12.6229 110.264 13.0156 110.347 13.304 110.513C13.5956 110.675 13.8177 110.861 13.9702 111.07C14.1259 111.275 14.2469 111.444 14.3331 111.577H14.4723V110.364H15.6058V120.864H14.4325ZM12.2649 117.105C12.7356 117.105 13.1333 116.982 13.4581 116.737C13.7829 116.489 14.0298 116.146 14.1989 115.708C14.3679 115.267 14.4524 114.759 14.4524 114.182C14.4524 113.612 14.3696 113.113 14.2038 112.685C14.0381 112.254 13.7929 111.92 13.468 111.681C13.1432 111.439 12.7422 111.318 12.2649 111.318C11.7678 111.318 11.3535 111.446 11.022 111.701C10.6939 111.953 10.447 112.296 10.2812 112.73C10.1188 113.161 10.0376 113.645 10.0376 114.182C10.0376 114.725 10.1205 115.219 10.2862 115.663C10.4553 116.104 10.7038 116.455 11.032 116.717C11.3634 116.976 11.7744 117.105 12.2649 117.105ZM22.5661 114.878V110.364H23.7393V118H22.5661V116.707H22.4865C22.3075 117.095 22.0291 117.425 21.6513 117.697C21.2734 117.965 20.7962 118.099 20.2195 118.099C19.7422 118.099 19.3179 117.995 18.9467 117.786C18.5755 117.574 18.2839 117.256 18.0717 116.832C17.8596 116.404 17.7536 115.866 17.7536 115.216V110.364H18.9268V115.136C18.9268 115.693 19.0826 116.137 19.3942 116.469C19.709 116.8 20.1101 116.966 20.5973 116.966C20.889 116.966 21.1856 116.891 21.4872 116.742C21.7921 116.593 22.0473 116.364 22.2528 116.056C22.4616 115.748 22.5661 115.355 22.5661 114.878ZM25.8883 118V110.364H27.0616V118H25.8883ZM26.4849 109.091C26.2562 109.091 26.059 109.013 25.8933 108.857C25.7309 108.701 25.6497 108.514 25.6497 108.295C25.6497 108.077 25.7309 107.889 25.8933 107.734C26.059 107.578 26.2562 107.5 26.4849 107.5C26.7136 107.5 26.9092 107.578 27.0716 107.734C27.2373 107.889 27.3201 108.077 27.3201 108.295C27.3201 108.514 27.2373 108.701 27.0716 108.857C26.9092 109.013 26.7136 109.091 26.4849 109.091ZM29.2106 120.864V110.364H30.3441V111.577H30.4833C30.5695 111.444 30.6888 111.275 30.8413 111.07C30.997 110.861 31.2191 110.675 31.5075 110.513C31.7991 110.347 32.1935 110.264 32.6907 110.264C33.3337 110.264 33.9005 110.425 34.391 110.746C34.8815 111.068 35.2643 111.524 35.5394 112.114C35.8145 112.704 35.9521 113.4 35.9521 114.202C35.9521 115.01 35.8145 115.711 35.5394 116.305C35.2643 116.895 34.8832 117.352 34.396 117.677C33.9087 117.998 33.3469 118.159 32.7106 118.159C32.2201 118.159 31.8273 118.078 31.5323 117.915C31.2373 117.75 31.0103 117.562 30.8512 117.354C30.6921 117.142 30.5695 116.966 30.4833 116.827H30.3839V120.864H29.2106ZM30.364 114.182C30.364 114.759 30.4485 115.267 30.6175 115.708C30.7866 116.146 31.0335 116.489 31.3583 116.737C31.6831 116.982 32.0808 117.105 32.5515 117.105C33.042 117.105 33.4513 116.976 33.7795 116.717C34.1109 116.455 34.3595 116.104 34.5252 115.663C34.6942 115.219 34.7788 114.725 34.7788 114.182C34.7788 113.645 34.6959 113.161 34.5302 112.73C34.3678 112.296 34.1209 111.953 33.7894 111.701C33.4613 111.446 33.0487 111.318 32.5515 111.318C32.0742 111.318 31.6732 111.439 31.3484 111.681C31.0236 111.92 30.7783 112.254 30.6126 112.685C30.4469 113.113 30.364 113.612 30.364 114.182ZM37.7418 118V110.364H38.8754V111.557H38.9748C39.1339 111.149 39.3907 110.833 39.7454 110.607C40.1 110.379 40.5259 110.264 41.0231 110.264C41.5269 110.264 41.9461 110.379 42.2809 110.607C42.619 110.833 42.8825 111.149 43.0714 111.557H43.1509C43.3465 111.162 43.6398 110.849 44.0309 110.617C44.422 110.382 44.891 110.264 45.4379 110.264C46.1206 110.264 46.6791 110.478 47.1133 110.906C47.5475 111.33 47.7646 111.991 47.7646 112.889V118H46.5913V112.889C46.5913 112.326 46.4371 111.923 46.1289 111.681C45.8207 111.439 45.4577 111.318 45.0401 111.318C44.5032 111.318 44.0872 111.481 43.7923 111.805C43.4973 112.127 43.3498 112.535 43.3498 113.028V118H42.1566V112.77C42.1566 112.336 42.0157 111.986 41.734 111.721C41.4523 111.452 41.0894 111.318 40.6452 111.318C40.3403 111.318 40.0553 111.399 39.7901 111.562C39.5283 111.724 39.3162 111.95 39.1538 112.238C38.9947 112.523 38.9151 112.853 38.9151 113.227V118H37.7418ZM53.1115 118.159C52.3757 118.159 51.741 117.997 51.2074 117.672C50.6771 117.344 50.2678 116.886 49.9794 116.3C49.6944 115.71 49.5518 115.024 49.5518 114.241C49.5518 113.459 49.6944 112.77 49.9794 112.173C50.2678 111.573 50.6688 111.106 51.1825 110.771C51.6996 110.433 52.3028 110.264 52.9922 110.264C53.3899 110.264 53.7827 110.33 54.1705 110.463C54.5582 110.596 54.9112 110.811 55.2294 111.109C55.5476 111.404 55.8011 111.795 55.9901 112.283C56.179 112.77 56.2734 113.37 56.2734 114.082V114.58H50.3871V113.565H55.0803C55.0803 113.134 54.9941 112.75 54.8217 112.412C54.6527 112.074 54.4107 111.807 54.0959 111.612C53.7843 111.416 53.4164 111.318 52.9922 111.318C52.5249 111.318 52.1205 111.434 51.7791 111.666C51.4411 111.895 51.1809 112.193 50.9986 112.561C50.8163 112.929 50.7251 113.323 50.7251 113.744V114.42C50.7251 114.997 50.8246 115.486 51.0234 115.887C51.2256 116.285 51.5057 116.588 51.8636 116.797C52.2216 117.002 52.6375 117.105 53.1115 117.105C53.4197 117.105 53.6982 117.062 53.9467 116.976C54.1986 116.886 54.4157 116.754 54.598 116.578C54.7803 116.399 54.9212 116.177 55.0206 115.912L56.1541 116.23C56.0348 116.615 55.8343 116.953 55.5526 117.244C55.2708 117.533 54.9228 117.758 54.5085 117.92C54.0942 118.08 53.6286 118.159 53.1115 118.159ZM59.2315 113.406V118H58.0582V110.364H59.1918V111.557H59.2912C59.4702 111.169 59.742 110.857 60.1065 110.622C60.4711 110.384 60.9418 110.264 61.5185 110.264C62.0355 110.264 62.4879 110.37 62.8757 110.582C63.2635 110.791 63.5651 111.109 63.7805 111.537C63.996 111.961 64.1037 112.498 64.1037 113.148V118H62.9304V113.227C62.9304 112.627 62.7746 112.16 62.4631 111.825C62.1515 111.487 61.724 111.318 61.1804 111.318C60.8059 111.318 60.4711 111.399 60.1761 111.562C59.8845 111.724 59.6541 111.961 59.4851 112.273C59.3161 112.584 59.2315 112.962 59.2315 113.406ZM69.5687 110.364V111.358H65.6113V110.364H69.5687ZM66.7647 108.534H67.938V115.812C67.938 116.144 67.9861 116.393 68.0822 116.558C68.1816 116.721 68.3076 116.83 68.46 116.886C68.6158 116.939 68.7799 116.966 68.9522 116.966C69.0815 116.966 69.1876 116.959 69.2704 116.946C69.3533 116.929 69.4196 116.916 69.4693 116.906L69.7079 117.96C69.6284 117.99 69.5173 118.02 69.3748 118.05C69.2323 118.083 69.0517 118.099 68.8329 118.099C68.5015 118.099 68.1767 118.028 67.8585 117.886C67.5436 117.743 67.2818 117.526 67.073 117.234C66.8675 116.943 66.7647 116.575 66.7647 116.131V108.534ZM78.6717 110.364V111.358H74.5552V110.364H78.6717ZM75.7882 118V109.31C75.7882 108.872 75.8909 108.508 76.0964 108.216C76.3019 107.924 76.5687 107.705 76.8968 107.56C77.225 107.414 77.5713 107.341 77.9359 107.341C78.2243 107.341 78.4596 107.364 78.6419 107.411C78.8242 107.457 78.96 107.5 79.0495 107.54L78.7115 108.554C78.6518 108.534 78.569 108.509 78.4629 108.479C78.3601 108.45 78.2243 108.435 78.0552 108.435C77.6674 108.435 77.3874 108.532 77.215 108.728C77.046 108.924 76.9615 109.21 76.9615 109.588V118H75.7882ZM83.1039 118.159C82.4145 118.159 81.8096 117.995 81.2892 117.667C80.7722 117.339 80.3678 116.88 80.0762 116.29C79.7878 115.7 79.6436 115.01 79.6436 114.222C79.6436 113.426 79.7878 112.732 80.0762 112.138C80.3678 111.545 80.7722 111.085 81.2892 110.756C81.8096 110.428 82.4145 110.264 83.1039 110.264C83.7933 110.264 84.3965 110.428 84.9135 110.756C85.4339 111.085 85.8382 111.545 86.1266 112.138C86.4183 112.732 86.5641 113.426 86.5641 114.222C86.5641 115.01 86.4183 115.7 86.1266 116.29C85.8382 116.88 85.4339 117.339 84.9135 117.667C84.3965 117.995 83.7933 118.159 83.1039 118.159ZM83.1039 117.105C83.6275 117.105 84.0584 116.971 84.3965 116.702C84.7346 116.434 84.9848 116.081 85.1472 115.643C85.3096 115.206 85.3908 114.732 85.3908 114.222C85.3908 113.711 85.3096 113.236 85.1472 112.795C84.9848 112.354 84.7346 111.998 84.3965 111.726C84.0584 111.454 83.6275 111.318 83.1039 111.318C82.5802 111.318 82.1493 111.454 81.8113 111.726C81.4732 111.998 81.223 112.354 81.0605 112.795C80.8981 113.236 80.8169 113.711 80.8169 114.222C80.8169 114.732 80.8981 115.206 81.0605 115.643C81.223 116.081 81.4732 116.434 81.8113 116.702C82.1493 116.971 82.5802 117.105 83.1039 117.105ZM88.3551 118V110.364H89.4886V111.517H89.5682C89.7074 111.139 89.9593 110.833 90.3239 110.597C90.6884 110.362 91.0994 110.244 91.5568 110.244C91.643 110.244 91.7507 110.246 91.88 110.249C92.0092 110.253 92.107 110.258 92.1733 110.264V111.457C92.1335 111.447 92.0424 111.433 91.8999 111.413C91.7607 111.389 91.6132 111.378 91.4574 111.378C91.0862 111.378 90.7547 111.456 90.4631 111.612C90.1747 111.764 89.946 111.976 89.777 112.248C89.6113 112.516 89.5284 112.823 89.5284 113.168V118H88.3551ZM100.823 110.364V111.358H96.8652V110.364H100.823ZM98.0186 108.534H99.1919V115.812C99.1919 116.144 99.24 116.393 99.3361 116.558C99.4355 116.721 99.5615 116.83 99.714 116.886C99.8697 116.939 100.034 116.966 100.206 116.966C100.335 116.966 100.441 116.959 100.524 116.946C100.607 116.929 100.673 116.916 100.723 116.906L100.962 117.96C100.882 117.99 100.771 118.02 100.629 118.05C100.486 118.083 100.306 118.099 100.087 118.099C99.7554 118.099 99.4306 118.028 99.1124 117.886C98.7975 117.743 98.5357 117.526 98.3269 117.234C98.1214 116.943 98.0186 116.575 98.0186 116.131V108.534ZM103.925 113.406V118H102.752V107.818H103.925V111.557H104.024C104.203 111.162 104.472 110.849 104.83 110.617C105.191 110.382 105.672 110.264 106.271 110.264C106.792 110.264 107.248 110.369 107.639 110.577C108.03 110.783 108.333 111.099 108.548 111.527C108.767 111.951 108.877 112.491 108.877 113.148V118H107.703V113.227C107.703 112.621 107.546 112.152 107.231 111.82C106.919 111.486 106.487 111.318 105.933 111.318C105.549 111.318 105.204 111.399 104.899 111.562C104.598 111.724 104.359 111.961 104.183 112.273C104.011 112.584 103.925 112.962 103.925 113.406ZM114.225 118.159C113.489 118.159 112.854 117.997 112.321 117.672C111.79 117.344 111.381 116.886 111.093 116.3C110.808 115.71 110.665 115.024 110.665 114.241C110.665 113.459 110.808 112.77 111.093 112.173C111.381 111.573 111.782 111.106 112.296 110.771C112.813 110.433 113.416 110.264 114.105 110.264C114.503 110.264 114.896 110.33 115.284 110.463C115.672 110.596 116.025 110.811 116.343 111.109C116.661 111.404 116.914 111.795 117.103 112.283C117.292 112.77 117.387 113.37 117.387 114.082V114.58H111.5V113.565H116.194C116.194 113.134 116.107 112.75 115.935 112.412C115.766 112.074 115.524 111.807 115.209 111.612C114.898 111.416 114.53 111.318 114.105 111.318C113.638 111.318 113.234 111.434 112.892 111.666C112.554 111.895 112.294 112.193 112.112 112.561C111.93 112.929 111.838 113.323 111.838 113.744V114.42C111.838 114.997 111.938 115.486 112.137 115.887C112.339 116.285 112.619 116.588 112.977 116.797C113.335 117.002 113.751 117.105 114.225 117.105C114.533 117.105 114.811 117.062 115.06 116.976C115.312 116.886 115.529 116.754 115.711 116.578C115.894 116.399 116.034 116.177 116.134 115.912L117.267 116.23C117.148 116.615 116.948 116.953 116.666 117.244C116.384 117.533 116.036 117.758 115.622 117.92C115.208 118.08 114.742 118.159 114.225 118.159ZM123.268 118V107.818H129.413V108.912H124.501V112.352H129.095V113.446H124.501V116.906H129.493V118H123.268ZM136.289 114.878V110.364H137.462V118H136.289V116.707H136.209C136.03 117.095 135.752 117.425 135.374 117.697C134.996 117.965 134.519 118.099 133.942 118.099C133.465 118.099 133.041 117.995 132.669 117.786C132.298 117.574 132.007 117.256 131.794 116.832C131.582 116.404 131.476 115.866 131.476 115.216V110.364H132.65V115.136C132.65 115.693 132.805 116.137 133.117 116.469C133.432 116.8 133.833 116.966 134.32 116.966C134.612 116.966 134.908 116.891 135.21 116.742C135.515 116.593 135.77 116.364 135.975 116.056C136.184 115.748 136.289 115.355 136.289 114.878ZM139.611 118V110.364H140.744V111.517H140.824C140.963 111.139 141.215 110.833 141.58 110.597C141.944 110.362 142.355 110.244 142.813 110.244C142.899 110.244 143.007 110.246 143.136 110.249C143.265 110.253 143.363 110.258 143.429 110.264V111.457C143.389 111.447 143.298 111.433 143.156 111.413C143.017 111.389 142.869 111.378 142.713 111.378C142.342 111.378 142.011 111.456 141.719 111.612C141.431 111.764 141.202 111.976 141.033 112.248C140.867 112.516 140.784 112.823 140.784 113.168V118H139.611ZM147.69 118.159C147 118.159 146.396 117.995 145.875 117.667C145.358 117.339 144.954 116.88 144.662 116.29C144.374 115.7 144.23 115.01 144.23 114.222C144.23 113.426 144.374 112.732 144.662 112.138C144.954 111.545 145.358 111.085 145.875 110.756C146.396 110.428 147 110.264 147.69 110.264C148.379 110.264 148.982 110.428 149.499 110.756C150.02 111.085 150.424 111.545 150.713 112.138C151.004 112.732 151.15 113.426 151.15 114.222C151.15 115.01 151.004 115.7 150.713 116.29C150.424 116.88 150.02 117.339 149.499 117.667C148.982 117.995 148.379 118.159 147.69 118.159ZM147.69 117.105C148.213 117.105 148.644 116.971 148.982 116.702C149.32 116.434 149.571 116.081 149.733 115.643C149.896 115.206 149.977 114.732 149.977 114.222C149.977 113.711 149.896 113.236 149.733 112.795C149.571 112.354 149.32 111.998 148.982 111.726C148.644 111.454 148.213 111.318 147.69 111.318C147.166 111.318 146.735 111.454 146.397 111.726C146.059 111.998 145.809 112.354 145.646 112.795C145.484 113.236 145.403 113.711 145.403 114.222C145.403 114.732 145.484 115.206 145.646 115.643C145.809 116.081 146.059 116.434 146.397 116.702C146.735 116.971 147.166 117.105 147.69 117.105ZM152.941 120.864V110.364H154.075V111.577H154.214C154.3 111.444 154.419 111.275 154.572 111.07C154.728 110.861 154.95 110.675 155.238 110.513C155.53 110.347 155.924 110.264 156.421 110.264C157.064 110.264 157.631 110.425 158.121 110.746C158.612 111.068 158.995 111.524 159.27 112.114C159.545 112.704 159.683 113.4 159.683 114.202C159.683 115.01 159.545 115.711 159.27 116.305C158.995 116.895 158.614 117.352 158.126 117.677C157.639 117.998 157.077 118.159 156.441 118.159C155.951 118.159 155.558 118.078 155.263 117.915C154.968 117.75 154.741 117.562 154.582 117.354C154.423 117.142 154.3 116.966 154.214 116.827H154.114V120.864H152.941ZM154.094 114.182C154.094 114.759 154.179 115.267 154.348 115.708C154.517 116.146 154.764 116.489 155.089 116.737C155.414 116.982 155.811 117.105 156.282 117.105C156.772 117.105 157.182 116.976 157.51 116.717C157.841 116.455 158.09 116.104 158.256 115.663C158.425 115.219 158.509 114.725 158.509 114.182C158.509 113.645 158.426 113.161 158.261 112.73C158.098 112.296 157.851 111.953 157.52 111.701C157.192 111.446 156.779 111.318 156.282 111.318C155.805 111.318 155.404 111.439 155.079 111.681C154.754 111.92 154.509 112.254 154.343 112.685C154.177 113.113 154.094 113.612 154.094 114.182ZM164.674 118.159C163.938 118.159 163.304 117.997 162.77 117.672C162.24 117.344 161.83 116.886 161.542 116.3C161.257 115.71 161.114 115.024 161.114 114.241C161.114 113.459 161.257 112.77 161.542 112.173C161.83 111.573 162.231 111.106 162.745 110.771C163.262 110.433 163.865 110.264 164.555 110.264C164.952 110.264 165.345 110.33 165.733 110.463C166.121 110.596 166.474 110.811 166.792 111.109C167.11 111.404 167.364 111.795 167.553 112.283C167.741 112.77 167.836 113.37 167.836 114.082V114.58H161.95V113.565H166.643C166.643 113.134 166.557 112.75 166.384 112.412C166.215 112.074 165.973 111.807 165.658 111.612C165.347 111.416 164.979 111.318 164.555 111.318C164.087 111.318 163.683 111.434 163.342 111.666C163.004 111.895 162.743 112.193 162.561 112.561C162.379 112.929 162.288 113.323 162.288 113.744V114.42C162.288 114.997 162.387 115.486 162.586 115.887C162.788 116.285 163.068 116.588 163.426 116.797C163.784 117.002 164.2 117.105 164.674 117.105C164.982 117.105 165.261 117.062 165.509 116.976C165.761 116.886 165.978 116.754 166.161 116.578C166.343 116.399 166.484 116.177 166.583 115.912L167.717 116.23C167.597 116.615 167.397 116.953 167.115 117.244C166.833 117.533 166.485 117.758 166.071 117.92C165.657 118.08 165.191 118.159 164.674 118.159ZM171.868 118.179C171.384 118.179 170.945 118.088 170.55 117.906C170.156 117.72 169.843 117.453 169.611 117.105C169.379 116.754 169.263 116.33 169.263 115.832C169.263 115.395 169.349 115.04 169.521 114.768C169.694 114.493 169.924 114.278 170.212 114.122C170.501 113.966 170.819 113.85 171.167 113.774C171.518 113.695 171.871 113.632 172.226 113.585C172.69 113.526 173.066 113.481 173.354 113.451C173.646 113.418 173.858 113.363 173.991 113.287C174.127 113.211 174.195 113.078 174.195 112.889V112.849C174.195 112.359 174.06 111.978 173.792 111.706C173.527 111.434 173.124 111.298 172.584 111.298C172.024 111.298 171.585 111.421 171.266 111.666C170.948 111.911 170.724 112.173 170.595 112.452L169.482 112.054C169.68 111.59 169.946 111.229 170.277 110.97C170.612 110.708 170.976 110.526 171.371 110.423C171.768 110.317 172.16 110.264 172.544 110.264C172.789 110.264 173.071 110.294 173.389 110.354C173.711 110.41 174.021 110.528 174.319 110.707C174.621 110.886 174.871 111.156 175.07 111.517C175.268 111.878 175.368 112.362 175.368 112.969V118H174.195V116.966H174.135C174.055 117.132 173.923 117.309 173.737 117.498C173.552 117.687 173.305 117.848 172.996 117.98C172.688 118.113 172.312 118.179 171.868 118.179ZM172.047 117.125C172.511 117.125 172.902 117.034 173.22 116.852C173.542 116.669 173.784 116.434 173.946 116.146C174.112 115.857 174.195 115.554 174.195 115.236V114.162C174.145 114.222 174.036 114.276 173.866 114.326C173.701 114.372 173.509 114.414 173.29 114.45C173.074 114.483 172.864 114.513 172.658 114.54C172.456 114.563 172.292 114.583 172.166 114.599C171.861 114.639 171.576 114.704 171.311 114.793C171.049 114.879 170.837 115.01 170.675 115.186C170.516 115.358 170.436 115.594 170.436 115.892C170.436 116.3 170.587 116.608 170.888 116.817C171.193 117.022 171.58 117.125 172.047 117.125ZM178.683 113.406V118H177.509V110.364H178.643V111.557H178.742C178.921 111.169 179.193 110.857 179.558 110.622C179.922 110.384 180.393 110.264 180.97 110.264C181.487 110.264 181.939 110.37 182.327 110.582C182.715 110.791 183.016 111.109 183.232 111.537C183.447 111.961 183.555 112.498 183.555 113.148V118H182.382V113.227C182.382 112.627 182.226 112.16 181.914 111.825C181.603 111.487 181.175 111.318 180.632 111.318C180.257 111.318 179.922 111.399 179.627 111.562C179.336 111.724 179.105 111.961 178.936 112.273C178.767 112.584 178.683 112.962 178.683 113.406ZM189.636 118V110.364H190.77V111.557H190.869C191.028 111.149 191.285 110.833 191.64 110.607C191.995 110.379 192.42 110.264 192.918 110.264C193.421 110.264 193.841 110.379 194.175 110.607C194.513 110.833 194.777 111.149 194.966 111.557H195.045C195.241 111.162 195.534 110.849 195.925 110.617C196.317 110.382 196.786 110.264 197.332 110.264C198.015 110.264 198.574 110.478 199.008 110.906C199.442 111.33 199.659 111.991 199.659 112.889V118H198.486V112.889C198.486 112.326 198.332 111.923 198.023 111.681C197.715 111.439 197.352 111.318 196.935 111.318C196.398 111.318 195.982 111.481 195.687 111.805C195.392 112.127 195.244 112.535 195.244 113.028V118H194.051V112.77C194.051 112.336 193.91 111.986 193.629 111.721C193.347 111.452 192.984 111.318 192.54 111.318C192.235 111.318 191.95 111.399 191.685 111.562C191.423 111.724 191.211 111.95 191.048 112.238C190.889 112.523 190.81 112.853 190.81 113.227V118H189.636ZM204.051 118.179C203.568 118.179 203.128 118.088 202.734 117.906C202.34 117.72 202.026 117.453 201.794 117.105C201.562 116.754 201.446 116.33 201.446 115.832C201.446 115.395 201.533 115.04 201.705 114.768C201.877 114.493 202.108 114.278 202.396 114.122C202.684 113.966 203.002 113.85 203.35 113.774C203.702 113.695 204.055 113.632 204.409 113.585C204.873 113.526 205.25 113.481 205.538 113.451C205.83 113.418 206.042 113.363 206.174 113.287C206.31 113.211 206.378 113.078 206.378 112.889V112.849C206.378 112.359 206.244 111.978 205.975 111.706C205.71 111.434 205.308 111.298 204.767 111.298C204.207 111.298 203.768 111.421 203.45 111.666C203.132 111.911 202.908 112.173 202.779 112.452L201.665 112.054C201.864 111.59 202.129 111.229 202.461 110.97C202.795 110.708 203.16 110.526 203.554 110.423C203.952 110.317 204.343 110.264 204.728 110.264C204.973 110.264 205.255 110.294 205.573 110.354C205.894 110.41 206.204 110.528 206.502 110.707C206.804 110.886 207.054 111.156 207.253 111.517C207.452 111.878 207.551 112.362 207.551 112.969V118H206.378V116.966H206.319C206.239 117.132 206.106 117.309 205.921 117.498C205.735 117.687 205.488 117.848 205.18 117.98C204.872 118.113 204.496 118.179 204.051 118.179ZM204.23 117.125C204.694 117.125 205.086 117.034 205.404 116.852C205.725 116.669 205.967 116.434 206.13 116.146C206.295 115.857 206.378 115.554 206.378 115.236V114.162C206.328 114.222 206.219 114.276 206.05 114.326C205.884 114.372 205.692 114.414 205.473 114.45C205.258 114.483 205.047 114.513 204.842 114.54C204.64 114.563 204.476 114.583 204.35 114.599C204.045 114.639 203.76 114.704 203.495 114.793C203.233 114.879 203.021 115.01 202.858 115.186C202.699 115.358 202.62 115.594 202.62 115.892C202.62 116.3 202.77 116.608 203.072 116.817C203.377 117.022 203.763 117.125 204.23 117.125ZM209.693 118V110.364H210.827V111.517H210.906C211.045 111.139 211.297 110.833 211.662 110.597C212.026 110.362 212.437 110.244 212.895 110.244C212.981 110.244 213.089 110.246 213.218 110.249C213.347 110.253 213.445 110.258 213.511 110.264V111.457C213.471 111.447 213.38 111.433 213.238 111.413C213.099 111.389 212.951 111.378 212.795 111.378C212.424 111.378 212.093 111.456 211.801 111.612C211.513 111.764 211.284 111.976 211.115 112.248C210.949 112.516 210.866 112.823 210.866 113.168V118H209.693ZM215.996 115.216L215.976 113.764H216.214L219.555 110.364H221.007L217.447 113.963H217.348L215.996 115.216ZM214.902 118V107.818H216.075V118H214.902ZM219.754 118L216.771 114.222L217.607 113.406L221.246 118H219.754ZM225.404 118.159C224.669 118.159 224.034 117.997 223.5 117.672C222.97 117.344 222.561 116.886 222.272 116.3C221.987 115.71 221.845 115.024 221.845 114.241C221.845 113.459 221.987 112.77 222.272 112.173C222.561 111.573 222.962 111.106 223.475 110.771C223.993 110.433 224.596 110.264 225.285 110.264C225.683 110.264 226.076 110.33 226.463 110.463C226.851 110.596 227.204 110.811 227.522 111.109C227.841 111.404 228.094 111.795 228.283 112.283C228.472 112.77 228.566 113.37 228.566 114.082V114.58H222.68V113.565H227.373C227.373 113.134 227.287 112.75 227.115 112.412C226.946 112.074 226.704 111.807 226.389 111.612C226.077 111.416 225.709 111.318 225.285 111.318C224.818 111.318 224.413 111.434 224.072 111.666C223.734 111.895 223.474 112.193 223.292 112.561C223.109 112.929 223.018 113.323 223.018 113.744V114.42C223.018 114.997 223.118 115.486 223.316 115.887C223.519 116.285 223.799 116.588 224.157 116.797C224.515 117.002 224.931 117.105 225.404 117.105C225.713 117.105 225.991 117.062 226.24 116.976C226.492 116.886 226.709 116.754 226.891 116.578C227.073 116.399 227.214 116.177 227.314 115.912L228.447 116.23C228.328 116.615 228.127 116.953 227.846 117.244C227.564 117.533 227.216 117.758 226.801 117.92C226.387 118.08 225.922 118.159 225.404 118.159ZM233.672 110.364V111.358H229.715V110.364H233.672ZM230.868 108.534H232.042V115.812C232.042 116.144 232.09 116.393 232.186 116.558C232.285 116.721 232.411 116.83 232.564 116.886C232.719 116.939 232.883 116.966 233.056 116.966C233.185 116.966 233.291 116.959 233.374 116.946C233.457 116.929 233.523 116.916 233.573 116.906L233.811 117.96C233.732 117.99 233.621 118.02 233.478 118.05C233.336 118.083 233.155 118.099 232.936 118.099C232.605 118.099 232.28 118.028 231.962 117.886C231.647 117.743 231.385 117.526 231.176 117.234C230.971 116.943 230.868 116.575 230.868 116.131V108.534Z" fill="#FAFAFA"/>
</svg>
