<svg width="184" height="40" viewBox="0 0 184 40" fill="none" xmlns="http://www.w3.org/2000/svg">
<g clip-path="url(#clip0_822_1201)">
<path d="M26 19.9998C26 21.5911 25.3679 23.1172 24.2427 24.2424C23.1175 25.3677 21.5913 25.9998 20 25.9998C18.4088 25.9998 16.8826 25.3677 15.7574 24.2424C14.6322 23.1172 14 21.5911 14 19.9998C14.0014 19.6571 14.034 19.3238 14.098 18.9998H12V26.9938C12 27.5498 12.45 27.9998 13.006 27.9998H26.996C27.2625 27.9993 27.5179 27.8931 27.7061 27.7044C27.8943 27.5158 28 27.2603 28 26.9938V18.9998H25.9021C25.966 19.3238 25.9987 19.6571 26 19.9998ZM20 23.9998C20.5255 23.9997 21.0457 23.8961 21.5311 23.6949C22.0165 23.4937 22.4575 23.1989 22.8289 22.8272C23.2003 22.4556 23.4949 22.0145 23.6959 21.529C23.8968 21.0435 24.0002 20.5232 24 19.9978C23.9999 19.4724 23.8963 18.9521 23.6951 18.4668C23.4939 17.9814 23.1991 17.5404 22.8275 17.169C22.4559 16.7975 22.0147 16.5029 21.5292 16.302C21.0438 16.101 20.5235 15.9977 19.998 15.9978C18.9369 15.9981 17.9194 16.4199 17.1692 17.1704C16.4191 17.9209 15.9978 18.9387 15.998 19.9998C15.9983 21.0609 16.4201 22.0785 17.1706 22.8286C17.9211 23.5788 18.9389 24.0001 20 23.9998ZM24.8 15.7998H27.198C27.277 15.8001 27.3552 15.7847 27.4283 15.7547C27.5013 15.7247 27.5677 15.6805 27.6236 15.6248C27.6795 15.569 27.7239 15.5028 27.7542 15.4299C27.7845 15.357 27.8 15.2788 27.8 15.1998V12.8018C27.8003 12.7227 27.7849 12.6443 27.7548 12.5711C27.7246 12.498 27.6803 12.4315 27.6243 12.3755C27.5684 12.3196 27.5019 12.2753 27.4287 12.2451C27.3556 12.2149 27.2772 12.1995 27.198 12.1998H24.8C24.7209 12.1995 24.6425 12.2149 24.5694 12.2451C24.4962 12.2753 24.4297 12.3196 24.3738 12.3755C24.3178 12.4315 24.2735 12.498 24.2433 12.5711C24.2132 12.6443 24.1978 12.7227 24.198 12.8018V15.1998C24.2001 15.5298 24.47 15.7998 24.8 15.7998ZM20 0.799805C14.9079 0.799805 10.0243 2.82266 6.4236 6.42335C2.8229 10.0241 0.800049 14.9076 0.800049 19.9998C0.800049 25.092 2.8229 29.9756 6.4236 33.5763C10.0243 37.177 14.9079 39.1998 20 39.1998C22.5214 39.1998 25.0181 38.7032 27.3476 37.7383C29.677 36.7734 31.7936 35.3591 33.5765 33.5763C35.3594 31.7934 36.7736 29.6768 37.7385 27.3473C38.7034 25.0179 39.2001 22.5212 39.2001 19.9998C39.2001 17.4784 38.7034 14.9817 37.7385 12.6523C36.7736 10.3228 35.3594 8.20624 33.5765 6.42335C31.7936 4.64047 29.677 3.22621 27.3476 2.26132C25.0181 1.29643 22.5214 0.799805 20 0.799805ZM30 27.7778C30 28.9998 29 29.9998 27.778 29.9998H12.222C11 29.9998 10 28.9998 10 27.7778V12.2218C10 10.9998 11 9.9998 12.222 9.9998H27.778C29 9.9998 30 10.9998 30 12.2218V27.7778Z" fill="#FAFAFA"/>
</g>
<g clip-path="url(#clip1_822_1201)">
<path d="M68 0.799805C57.396 0.799805 48.8 9.39581 48.8 19.9998C48.8 30.6038 57.396 39.1998 68 39.1998C78.604 39.1998 87.2001 30.6038 87.2001 19.9998C87.2001 9.39581 78.604 0.799805 68 0.799805ZM72.548 14.0678H69.6621C69.32 14.0678 68.9401 14.5178 68.9401 15.1158V17.1998H72.55L72.004 20.1718H68.9401V29.0938H65.534V20.1718H62.444V17.1998H65.534V15.4518C65.534 12.9438 67.274 10.9058 69.6621 10.9058H72.548V14.0678Z" fill="#FAFAFA"/>
</g>
<g clip-path="url(#clip2_822_1201)">
<path d="M116 0.799805C105.396 0.799805 96.8 9.39581 96.8 19.9998C96.8 30.6038 105.396 39.1998 116 39.1998C126.604 39.1998 135.2 30.6038 135.2 19.9998C135.2 9.39581 126.604 0.799805 116 0.799805ZM111.3 27.9578H107.412V15.4458H111.3V27.9578ZM109.332 13.9098C108.104 13.9098 107.31 13.0398 107.31 11.9638C107.31 10.8658 108.128 10.0218 109.382 10.0218C110.636 10.0218 111.404 10.8658 111.428 11.9638C111.428 13.0398 110.636 13.9098 109.332 13.9098ZM125.5 27.9578H121.612V21.0238C121.612 19.4098 121.048 18.3138 119.642 18.3138C118.568 18.3138 117.93 19.0558 117.648 19.7698C117.544 20.0238 117.518 20.3838 117.518 20.7418V27.9558H113.628V19.4358C113.628 17.8738 113.578 16.5678 113.526 15.4438H116.904L117.082 17.1818H117.16C117.672 16.3658 118.926 15.1618 121.024 15.1618C123.582 15.1618 125.5 16.8758 125.5 20.5598V27.9578Z" fill="#FAFAFA"/>
</g>
<g clip-path="url(#clip3_822_1201)">
<path d="M167.206 19.6658L162.714 17.5698C162.322 17.3878 162 17.5918 162 18.0258V21.9738C162 22.4078 162.322 22.6118 162.714 22.4298L167.204 20.3338C167.598 20.1498 167.598 19.8498 167.206 19.6658ZM164 0.799805C153.396 0.799805 144.8 9.39581 144.8 19.9998C144.8 30.6038 153.396 39.1998 164 39.1998C174.604 39.1998 183.2 30.6038 183.2 19.9998C183.2 9.39581 174.604 0.799805 164 0.799805ZM164 27.7998C154.172 27.7998 154 26.9138 154 19.9998C154 13.0858 154.172 12.1998 164 12.1998C173.828 12.1998 174 13.0858 174 19.9998C174 26.9138 173.828 27.7998 164 27.7998Z" fill="#FAFAFA"/>
</g>
<defs>
<clipPath id="clip0_822_1201">
<rect width="40" height="40" fill="white"/>
</clipPath>
<clipPath id="clip1_822_1201">
<rect width="40" height="40" fill="white" transform="translate(48)"/>
</clipPath>
<clipPath id="clip2_822_1201">
<rect width="40" height="40" fill="white" transform="translate(96)"/>
</clipPath>
<clipPath id="clip3_822_1201">
<rect width="40" height="40" fill="white" transform="translate(144)"/>
</clipPath>
</defs>
</svg>
