<svg width="908" height="430" viewBox="0 0 908 430" fill="none" xmlns="http://www.w3.org/2000/svg">
<mask id="path-1-inside-1_733_2058" fill="white">
<path d="M908 406C908 419.255 897.255 430 884 430H590C576.745 430 566 419.255 566 406V372C566 358.745 555.255 348 542 348H365C351.745 348 341 358.745 341 372V406C341 419.255 330.255 430 317 430H24C10.7452 430 0 419.255 0 406V24C0 10.7452 10.7452 0 24 0H884C897.255 0 908 10.7452 908 24V406Z"/>
</mask>
<path d="M908 406C908 419.255 897.255 430 884 430H590C576.745 430 566 419.255 566 406V372C566 358.745 555.255 348 542 348H365C351.745 348 341 358.745 341 372V406C341 419.255 330.255 430 317 430H24C10.7452 430 0 419.255 0 406V24C0 10.7452 10.7452 0 24 0H884C897.255 0 908 10.7452 908 24V406Z" fill="#FAFAFA"/>
<path d="M884 430V429H590V430V431H884V430ZM566 406H567V372H566H565V406H566ZM542 348V347H365V348V349H542V348ZM341 372H340V406H341H342V372H341ZM317 430V429H24V430V431H317V430ZM0 406H1V24H0H-1V406H0ZM24 0V1H884V0V-1H24V0ZM908 24H907V406H908H909V24H908ZM884 0V1C896.703 1 907 11.2975 907 24H908H909C909 10.1929 897.807 -1 884 -1V0ZM0 24H1C1 11.2975 11.2975 1 24 1V0V-1C10.1929 -1 -1 10.1929 -1 24H0ZM24 430V429C11.2974 429 1 418.703 1 406H0H-1C-1 419.807 10.1929 431 24 431V430ZM341 406H340C340 418.703 329.703 429 317 429V430V431C330.807 431 342 419.807 342 406H341ZM365 348V347C351.193 347 340 358.193 340 372H341H342C342 359.297 352.297 349 365 349V348ZM566 372H567C567 358.193 555.807 347 542 347V348V349C554.703 349 565 359.297 565 372H566ZM590 430V429C577.297 429 567 418.703 567 406H566H565C565 419.807 576.193 431 590 431V430ZM884 430V431C897.807 431 909 419.807 909 406H908H907C907 418.703 896.703 429 884 429V430Z" fill="#0D0202" fill-opacity="0.24" mask="url(#path-1-inside-1_733_2058)"/>
</svg>
