<svg width="1632" height="654" viewBox="0 0 1632 654" fill="none" xmlns="http://www.w3.org/2000/svg">
<path d="M1566 34C1566 51.6731 1580.33 66 1598 66H1600C1617.67 66 1632 80.3269 1632 98V622C1632 639.673 1617.67 654 1600 654H32C14.3269 654 0 639.673 0 622V32C9.79335e-06 14.3269 14.3269 6.12048e-07 32 0H1534C1551.67 0 1566 14.3269 1566 32V34Z" fill="#FAFAFA"/>
<path d="M1568 566C1568 579.255 1557.25 590 1544 590H335C321.745 590 311 579.255 311 566V532C311 518.745 300.255 508 287 508H120C106.745 508 96 518.745 96 532V574C96 582.837 88.8366 590 80 590C71.1634 590 64 582.837 64 574V88C64 74.7452 74.7452 64 88 64H1544C1557.25 64 1568 74.7452 1568 88V566Z" fill="none" stroke="#0D0202" stroke-width="1"/>
</svg>
