<svg width="146" height="48" viewBox="0 0 146 48" fill="none" xmlns="http://www.w3.org/2000/svg">
<path d="M135.977 14.9544H15.819V21.4833H35.0504V26.3132H15.819V37.4144H10.0266V10.0513H135.977V14.9544Z" fill="#BF2121"/>
<path d="M46.7767 17.8848C49.5344 17.8848 51.6845 18.7407 53.227 20.4524C54.7696 22.1642 55.5409 24.2748 55.5409 26.7841C55.5409 27.3144 55.4905 28.0876 55.3897 29.1036H43.0526C43.0736 29.6885 43.2229 30.2613 43.4896 30.7808C43.7564 31.3002 44.134 31.7533 44.5951 32.1072C45.5206 32.8157 46.7494 33.1699 48.2815 33.1699C49.5352 33.1679 50.7846 33.0217 52.0056 32.734C52.9732 32.5502 53.9101 32.2289 54.7885 31.7795V36.5903C53.0319 37.5024 50.6866 37.9585 47.7526 37.9585C44.571 37.9585 42.02 37.0209 40.0997 35.1458C38.1794 33.2707 37.2192 30.8621 37.2192 27.92C37.2192 25.0564 38.1353 22.6669 39.9675 20.7515C40.8413 19.8193 41.8987 19.0826 43.0715 18.5888C44.2443 18.095 45.5065 17.8552 46.7767 17.8848ZM50.1608 26.1732C50.2397 25.1964 49.9356 24.2274 49.314 23.4751C48.996 23.1054 48.5988 22.8138 48.1526 22.6225C47.7064 22.4312 47.2229 22.3452 46.7389 22.371C46.2541 22.3507 45.7707 22.4373 45.3222 22.6246C44.8737 22.812 44.471 23.0957 44.1418 23.456C43.479 24.2073 43.0941 25.1675 43.0526 26.1732H50.1608Z" fill="#BF2121"/>
<path d="M59.4163 37.4304V18.4162H64.535L64.6483 20.2808C64.6379 20.699 64.6505 21.1175 64.6861 21.5344C65.2742 20.4884 66.0836 19.5866 67.0566 18.8935C67.9919 18.2271 69.1106 17.8743 70.255 17.8849C70.6593 17.8548 71.0658 17.8935 71.4575 17.9994V23.5452C71.0614 23.3742 70.6315 23.2979 70.2015 23.3225C69.4999 23.3142 68.8053 23.4634 68.1678 23.7594C67.5303 24.0555 66.9658 24.4909 66.5151 25.0343C65.494 26.2222 64.9563 27.7571 65.0103 29.3297V37.4304H59.4163Z" fill="#BF2121"/>
<path d="M76.1008 20.7357C77.9896 18.8266 80.379 17.8721 83.2689 17.8721C86.1588 17.8721 88.5534 18.8266 90.4527 20.7357C92.3605 22.6447 93.3143 25.0406 93.3143 27.9232C93.3143 30.8059 92.3605 33.2018 90.4527 35.1108C88.5492 37.0199 86.1546 37.9744 83.2689 37.9744C80.3832 37.9744 77.9938 37.0199 76.1008 35.1108C74.212 33.2018 73.2676 30.8059 73.2676 27.9232C73.2676 25.0406 74.212 22.6447 76.1008 20.7357ZM79.9005 31.7064C80.3242 32.1815 80.8447 32.5584 81.4261 32.811C82.0075 33.0637 82.6362 33.1861 83.2689 33.17C83.9038 33.1853 84.5346 33.0625 85.1184 32.81C85.7023 32.5575 86.2257 32.1811 86.6531 31.7064C87.5788 30.674 88.0661 29.3153 88.0099 27.9232C88.0655 26.5312 87.5783 25.1728 86.6531 24.1401C86.2257 23.6654 85.7023 23.289 85.1184 23.0365C84.5346 22.784 83.9038 22.6612 83.2689 22.6765C82.6362 22.6604 82.0075 22.7828 81.4261 23.0354C80.8447 23.2881 80.3242 23.6649 79.9005 24.1401C79.0086 25.1159 78.5636 26.3769 78.5657 27.9232C78.5678 29.4696 79.0128 30.7306 79.9005 31.7064Z" fill="#BF2121"/>
<path d="M114.305 18.416L108.009 27.5445L114.595 37.4302H108.425L104.6 31.6489L100.838 37.4302H94.6301L101.052 28.0758L94.7812 18.416H101.052L104.439 24.2355L107.861 18.416H114.305Z" fill="#BF2121"/>
<path d="M118.763 20.7357C120.652 18.8266 123.041 17.8721 125.931 17.8721C128.821 17.8721 131.216 18.8266 133.115 20.7357C135.023 22.6447 135.977 25.0406 135.977 27.9232C135.977 30.8059 135.023 33.2018 133.115 35.1108C131.209 37.0199 128.815 37.9744 125.931 37.9744C123.048 37.9744 120.658 37.0199 118.763 35.1108C116.874 33.2018 115.93 30.8059 115.93 27.9232C115.93 25.0406 116.874 22.6447 118.763 20.7357ZM122.563 31.7064C122.986 32.1817 123.507 32.5587 124.088 32.8113C124.67 33.064 125.299 33.1863 125.931 33.17C126.566 33.1849 127.197 33.0619 127.781 32.8094C128.364 32.5569 128.888 32.1808 129.315 31.7064C130.22 30.7327 130.671 29.4717 130.669 27.9232C130.667 26.3748 130.216 25.1138 129.315 24.1401C128.887 23.6645 128.362 23.2876 127.776 23.0351C127.191 22.7825 126.558 22.6602 125.922 22.6765C125.289 22.6601 124.66 22.7825 124.079 23.0351C123.497 23.2878 122.977 23.6648 122.553 24.1401C121.664 25.1159 121.219 26.3769 121.219 27.9232C121.219 29.4696 121.667 30.7306 122.563 31.7064Z" fill="#BF2121"/>
</svg>
