<svg width="74" height="59" viewBox="0 0 74 59" fill="none" xmlns="http://www.w3.org/2000/svg">
<path d="M71.875 55H66.25V18.75H66.875C67.3723 18.75 67.8492 18.5525 68.2008 18.2008C68.5525 17.8492 68.75 17.3723 68.75 16.875C68.75 16.3777 68.5525 15.9008 68.2008 15.5492C67.8492 15.1975 67.3723 15 66.875 15H51.25V3.75H51.875C52.3723 3.75 52.8492 3.55246 53.2008 3.20083C53.5525 2.84919 53.75 2.37228 53.75 1.875C53.75 1.37772 53.5525 0.900805 53.2008 0.549175C52.8492 0.197544 52.3723 0 51.875 0H6.875C6.37772 0 5.90081 0.197544 5.54917 0.549175C5.19754 0.900805 5 1.37772 5 1.875C5 2.37228 5.19754 2.84919 5.54917 3.20083C5.90081 3.55246 6.37772 3.75 6.875 3.75H7.5V55H1.875C1.37772 55 0.900805 55.1975 0.549175 55.5492C0.197544 55.9008 0 56.3777 0 56.875C0 57.3723 0.197544 57.8492 0.549175 58.2008C0.900805 58.5525 1.37772 58.75 1.875 58.75H71.875C72.3723 58.75 72.8492 58.5525 73.2008 58.2008C73.5525 57.8492 73.75 57.3723 73.75 56.875C73.75 56.3777 73.5525 55.9008 73.2008 55.5492C72.8492 55.1975 72.3723 55 71.875 55ZM62.5 18.75V55H51.25V18.75H62.5ZM11.25 3.75H47.5V55H38.75V39.375C38.75 38.8777 38.5525 38.4008 38.2008 38.0492C37.8492 37.6975 37.3723 37.5 36.875 37.5H21.875C21.3777 37.5 20.9008 37.6975 20.5492 38.0492C20.1975 38.4008 20 38.8777 20 39.375V55H11.25V3.75ZM35 55H23.75V41.25H35V55ZM17.5 14.375C17.5 13.8777 17.6975 13.4008 18.0492 13.0492C18.4008 12.6975 18.8777 12.5 19.375 12.5H24.375C24.8723 12.5 25.3492 12.6975 25.7008 13.0492C26.0525 13.4008 26.25 13.8777 26.25 14.375C26.25 14.8723 26.0525 15.3492 25.7008 15.7008C25.3492 16.0525 24.8723 16.25 24.375 16.25H19.375C18.8777 16.25 18.4008 16.0525 18.0492 15.7008C17.6975 15.3492 17.5 14.8723 17.5 14.375ZM32.5 14.375C32.5 13.8777 32.6975 13.4008 33.0492 13.0492C33.4008 12.6975 33.8777 12.5 34.375 12.5H39.375C39.8723 12.5 40.3492 12.6975 40.7008 13.0492C41.0525 13.4008 41.25 13.8777 41.25 14.375C41.25 14.8723 41.0525 15.3492 40.7008 15.7008C40.3492 16.0525 39.8723 16.25 39.375 16.25H34.375C33.8777 16.25 33.4008 16.0525 33.0492 15.7008C32.6975 15.3492 32.5 14.8723 32.5 14.375ZM19.375 28.75C18.8777 28.75 18.4008 28.5525 18.0492 28.2008C17.6975 27.8492 17.5 27.3723 17.5 26.875C17.5 26.3777 17.6975 25.9008 18.0492 25.5492C18.4008 25.1975 18.8777 25 19.375 25H24.375C24.8723 25 25.3492 25.1975 25.7008 25.5492C26.0525 25.9008 26.25 26.3777 26.25 26.875C26.25 27.3723 26.0525 27.8492 25.7008 28.2008C25.3492 28.5525 24.8723 28.75 24.375 28.75H19.375ZM32.5 26.875C32.5 26.3777 32.6975 25.9008 33.0492 25.5492C33.4008 25.1975 33.8777 25 34.375 25H39.375C39.8723 25 40.3492 25.1975 40.7008 25.5492C41.0525 25.9008 41.25 26.3777 41.25 26.875C41.25 27.3723 41.0525 27.8492 40.7008 28.2008C40.3492 28.5525 39.8723 28.75 39.375 28.75H34.375C33.8777 28.75 33.4008 28.5525 33.0492 28.2008C32.6975 27.8492 32.5 27.3723 32.5 26.875Z" fill="black"/>
</svg>
