<svg width="80" height="80" viewBox="0 0 80 80" fill="none" xmlns="http://www.w3.org/2000/svg">
<rect x="0.5" y="0.5" width="79" height="79" rx="39.5" stroke="#FAFAFA" stroke-opacity="0.24"/>
<path d="M58.3045 53.4638C56.6488 52.1882 52.2407 48.6651 48.1351 44.4313C45.4063 41.6157 44.2457 38.7969 42.177 36.6632C40.3032 34.7307 38.5988 33.6044 38.5988 33.6044L38.1188 34.0994L34.8763 30.7557L36.1288 29.4638C36.2308 29.3579 36.2878 29.2165 36.2878 29.0694C36.2878 28.9224 36.2308 28.781 36.1288 28.6751L35.8701 28.4082C35.8713 28.4069 39.5563 23.4482 44.2157 24.8194C44.757 24.9801 45.2395 25.2532 45.3763 25.1138C45.5626 24.9226 44.8532 24.1876 44.4376 23.7626C38.5432 17.7313 32.0413 24.4526 32.0382 24.4557L31.8088 24.2188C31.7595 24.1673 31.7002 24.1263 31.6346 24.0982C31.5689 24.0702 31.4983 24.0558 31.427 24.0558C31.3556 24.0558 31.285 24.0702 31.2193 24.0982C31.1537 24.1263 31.0944 24.1673 31.0451 24.2188L25.2707 30.1738C25.1687 30.2798 25.1118 30.4211 25.1118 30.5682C25.1118 30.7153 25.1687 30.8566 25.2707 30.9626C25.2707 30.9626 25.9776 32.1994 24.1238 32.4219C23.3776 32.5126 22.9101 32.6807 22.6451 32.9026C22.2314 33.3198 21.8191 33.7383 21.4082 34.1582C21.3062 34.2642 21.2493 34.4055 21.2493 34.5526C21.2493 34.6996 21.3062 34.841 21.4082 34.9469L25.7295 39.4044C25.7789 39.456 25.8382 39.497 25.9039 39.525C25.9696 39.5531 26.0402 39.5675 26.1116 39.5675C26.1831 39.5675 26.2537 39.5531 26.3194 39.525C26.3851 39.497 26.4444 39.456 26.4938 39.4044C26.4938 39.4044 27.6851 38.1607 27.7107 38.1282C27.9251 37.8544 28.0888 37.3732 28.1751 36.6032C28.3926 34.6907 29.5901 35.4207 29.5901 35.4207C29.6395 35.4724 29.6988 35.5136 29.7646 35.5417C29.8303 35.5699 29.9011 35.5844 29.9726 35.5844C30.0441 35.5844 30.1149 35.5699 30.1806 35.5417C30.2464 35.5136 30.3057 35.4724 30.3551 35.4207L31.6076 34.1288L34.8488 37.4719L34.3688 37.9676C34.3688 37.9676 35.4613 39.7257 37.3351 41.6582C39.4032 43.7913 42.137 44.9882 44.8663 47.8038C48.9707 52.0376 52.3863 56.5832 53.6251 58.2913C54.0926 58.9344 54.167 58.8751 54.7376 58.2857L56.5182 56.4494L58.2976 54.6138C58.8695 54.0226 58.9282 53.9463 58.3045 53.4638Z" fill="#FAFAFA"/>
<path d="M41.2549 34.1814C41.7914 34.6659 42.3119 35.1679 42.8155 35.6864C43.8105 36.7127 44.643 37.8608 45.4774 39.0864L51.0662 33.497C52.1025 33.7503 53.1866 33.7324 54.2141 33.445C55.2415 33.1576 56.1775 32.6104 56.932 31.8561C57.6865 31.1019 58.2341 30.166 58.5218 29.1387C58.8096 28.1113 58.8279 27.0272 58.5749 25.9908L53.5024 31.0633L49.9024 30.0989L48.9374 26.497L54.0087 21.4277C52.9725 21.1741 51.8885 21.1922 50.8614 21.4802C49.8343 21.7681 48.8989 22.3162 48.1455 23.0714C47.3908 23.825 46.8431 24.7603 46.555 25.7872C46.267 26.814 46.2485 27.8978 46.5012 28.9339L41.2549 34.1814ZM36.5555 42.1439C36.0197 41.5903 35.5029 41.0185 35.0062 40.4295L28.933 46.5033C27.8969 46.2503 26.8131 46.2686 25.7861 46.5564C24.7591 46.8442 23.8237 47.3918 23.0699 48.1464C20.643 50.5714 20.6437 54.5052 23.0699 56.9308C23.6465 57.5078 24.3312 57.9656 25.0847 58.2779C25.8383 58.5902 26.6461 58.7509 27.4618 58.7509C28.2775 58.7509 29.0853 58.5902 29.8388 58.2779C30.5924 57.9656 31.2771 57.5078 31.8537 56.9308C32.6083 56.1767 33.156 55.2409 33.444 54.2136C33.732 53.1864 33.7506 52.1023 33.498 51.0658L39.7505 44.8139C38.6005 43.9777 37.5212 43.1395 36.5555 42.1439ZM28.4268 56.1389L24.8262 55.1739L23.8618 51.5727L26.498 48.9383L30.098 49.9014L31.0624 53.5033L28.4268 56.1389Z" fill="#FAFAFA"/>
</svg>
