<svg width="40" height="40" viewBox="0 0 40 40" fill="none" xmlns="http://www.w3.org/2000/svg">
<path d="M19.2956 12.492V6.56945C19.2031 6.07445 7.1762 8.04133 7.27057 8.53633V14.4588C7.36432 14.9545 19.3893 12.9876 19.2956 12.492ZM32.7293 14.4595V8.53695C32.8243 8.04195 20.7981 6.07508 20.7043 6.57008V12.492C20.6106 12.9876 32.6356 14.9545 32.7293 14.4595Z" fill="#FAFAFA"/>
<path d="M7.77428 17.4598C8.31759 17.4598 8.75803 17.0302 8.75803 16.5004C8.75803 15.9705 8.31759 15.541 7.77428 15.541C7.23097 15.541 6.79053 15.9705 6.79053 16.5004C6.79053 17.0302 7.23097 17.4598 7.77428 17.4598Z" fill="#FAFAFA"/>
<path d="M10.6362 32.3056L15.2869 33.1044L15.5175 31.83L10.8669 31.0312L10.6362 32.3056ZM24.4825 31.83L24.7131 33.1044L29.3637 32.3056L29.1331 31.0312L24.4825 31.83Z" fill="#FAFAFA"/>
<path d="M32.2263 17.4598C32.77 17.4598 33.2107 17.0302 33.2107 16.5004C33.2107 15.9705 32.77 15.541 32.2263 15.541C31.6827 15.541 31.2419 15.9705 31.2419 16.5004C31.2419 17.0302 31.6827 17.4598 32.2263 17.4598Z" fill="#FAFAFA"/>
<path d="M20 19.0969C21.1571 19.0969 22.095 18.1833 22.095 17.0563C22.095 15.9292 21.1571 15.0156 20 15.0156C18.843 15.0156 17.905 15.9292 17.905 17.0563C17.905 18.1833 18.843 19.0969 20 19.0969Z" fill="#FAFAFA"/>
<path d="M18.5706 22.6688C18.5706 23.4376 19.2112 24.062 19.9999 24.062C20.7887 24.062 21.4293 23.4382 21.4293 22.6688C21.4293 21.8995 20.7887 21.2776 19.9999 21.2776C19.2112 21.2776 18.5706 21.9001 18.5706 22.6688ZM20.6699 22.6688C20.6699 23.0288 20.3699 23.322 19.9999 23.322C19.8248 23.3236 19.6561 23.2559 19.5307 23.1335C19.4054 23.0111 19.3337 22.844 19.3312 22.6688C19.3312 22.3101 19.6312 22.017 19.9999 22.017C20.3699 22.0176 20.6699 22.3101 20.6699 22.6688ZM28.3618 18.8713L28.1837 19.8526C28.1312 20.1413 28.3706 20.4238 28.7162 20.4832L33.7212 21.3432C34.0668 21.402 34.3899 21.2163 34.4412 20.9282L34.6193 19.9463C34.6718 19.6576 34.4337 19.3757 34.0868 19.3163L29.0818 18.4563C28.7368 18.397 28.4131 18.5832 28.3618 18.8713Z" fill="#FAFAFA"/>
<path d="M31.2463 32.9175V32.8131L35.1437 38.75H38.75L33.7094 32.1456C34.8587 31.7587 35.4837 31.1969 35.4837 30.2969V21.4325C35.4963 21.3881 35.5119 21.345 35.5206 21.2987L35.7606 19.9706C35.7926 19.7981 35.7896 19.621 35.7519 19.4497C35.7143 19.2783 35.6426 19.1163 35.5413 18.9731C35.5244 18.9481 35.5019 18.9287 35.4837 18.905V7.73625C35.4837 6.65812 34.3438 6.25437 33.4281 5.93C33.1976 5.84901 32.9657 5.77212 32.7325 5.69938V5.265C32.7325 5.075 31.215 4.56188 28.9275 4.08563C28.9369 3.99625 28.9544 3.91 28.9544 3.81813C28.9544 2.40188 27.7794 1.25 26.335 1.25C25.0669 1.25 24.0063 2.13938 23.7681 3.31625C22.5157 3.19418 21.2583 3.13036 20 3.125C18.7262 3.125 17.4575 3.20125 16.2344 3.31625C15.9956 2.13938 14.935 1.25 13.6669 1.25C12.2219 1.25 11.0475 2.40188 11.0475 3.81813C11.0475 3.90938 11.065 3.99625 11.0744 4.085C8.78625 4.56125 7.26937 5.07438 7.26937 5.26438V5.69812C7.02187 5.77562 6.78812 5.85313 6.57375 5.92875C5.6575 6.25313 4.5175 6.65688 4.5175 7.735L4.51875 18.9025C4.5 18.9269 4.4775 18.9462 4.45938 18.9719C4.35874 19.1154 4.28759 19.2775 4.25004 19.4487C4.21249 19.6199 4.20929 19.7969 4.24062 19.9694L4.48063 21.2969C4.48938 21.345 4.505 21.39 4.51937 21.4356V25.2288H4.5175V30.2956C4.5175 31.1956 5.1425 31.7575 6.29188 32.145L1.25 38.75H4.85687L8.75375 32.8144V32.9175C8.75375 33.72 9.24937 34.3787 10.2169 34.8969L7.77437 38.75H32.225L29.7837 34.8962C30.7519 34.3787 31.2463 33.72 31.2463 32.9175ZM26.3319 23.9756V24.1C26.3319 24.5306 25.6787 24.8225 25.3344 24.88C24.8631 24.9587 24.2956 25.0225 23.6719 25.0725V23.9756H26.3319ZM23.6719 22.6694V21.5719C24.2284 21.6137 24.783 21.6782 25.3344 21.765C25.6787 21.8225 26.3319 22.1144 26.3319 22.545V22.6694H23.6719ZM35.145 19.8587L34.9044 21.1862C34.8681 21.3764 34.758 21.5444 34.5981 21.6535C34.4382 21.7626 34.2415 21.8038 34.0513 21.7681L28.2556 20.7719C28.1615 20.757 28.0713 20.7236 27.9901 20.6737C27.909 20.6237 27.8386 20.5581 27.783 20.4808C27.7273 20.4034 27.6876 20.3158 27.6661 20.2229C27.6445 20.1301 27.6416 20.034 27.6575 19.94L27.8981 18.6138C27.9343 18.4233 28.0447 18.2551 28.2049 18.146C28.3651 18.0369 28.5621 17.9958 28.7525 18.0319L34.5481 19.0269C34.9487 19.0969 35.2162 19.4681 35.145 19.8587ZM26.3344 1.875C27.4356 1.875 28.3288 2.745 28.3288 3.81813C28.3288 4.89125 27.435 5.76125 26.3344 5.76125C25.2337 5.76125 24.34 4.89062 24.34 3.81813C24.3394 2.745 25.2331 1.875 26.3344 1.875ZM13.6669 1.875C14.7681 1.875 15.6613 2.745 15.6613 3.81813C15.6613 4.89125 14.7675 5.76125 13.6669 5.76125C12.5663 5.76125 11.6725 4.89062 11.6725 3.81813C11.6725 2.745 12.5656 1.875 13.6669 1.875ZM12.0512 5.825C12.3313 6.04539 12.6532 6.20645 12.9975 6.29839C13.3418 6.39032 13.7012 6.41119 14.0538 6.35973C14.4064 6.30827 14.7448 6.18556 15.0485 5.99907C15.3521 5.81258 15.6146 5.56622 15.82 5.275C17.2083 5.12417 18.6035 5.04615 20 5.04125H20.0037C21.4156 5.04125 22.825 5.13125 24.1812 5.27437C24.3866 5.56564 24.649 5.81206 24.9526 5.99861C25.2563 6.18516 25.5947 6.30793 25.9473 6.35945C26.2999 6.41097 26.6593 6.39015 27.0036 6.29826C27.3479 6.20638 27.6699 6.04536 27.95 5.825C31.605 6.50937 34.2337 7.43813 34.2337 7.73625V18.34L28.8581 17.4169C28.7805 17.4038 28.7019 17.3971 28.6231 17.3969C28.3053 17.3951 27.997 17.5051 27.752 17.7075C27.5069 17.9099 27.3408 18.1919 27.2825 18.5044L27.0425 19.83C27.0104 20.0031 27.0134 20.1809 27.0514 20.3528C27.0894 20.5247 27.1616 20.6872 27.2638 20.8306C27.4725 21.1294 27.7875 21.3275 28.15 21.3894L33.945 22.3856C34.0242 22.399 34.1021 22.4056 34.1787 22.4056C34.1969 22.4056 34.2144 22.4012 34.2325 22.4012V22.6706H27.6575V22.1506C27.6575 21.5013 26.8688 21.0619 26.4525 20.9762C25.6931 20.8181 24.7325 20.6987 23.6719 20.6169V14.4275C23.6719 12.8406 16.3294 12.8406 16.3294 14.4275V20.6169C15.2681 20.6987 14.3075 20.8181 13.5487 20.9762C13.1325 21.0619 12.3438 21.5013 12.3438 22.1506V22.6706H5.76875V22.4012C5.78625 22.4012 5.80375 22.4056 5.82125 22.4056C5.89833 22.4056 5.97604 22.399 6.05438 22.3856L11.85 21.3894C12.0273 21.3597 12.197 21.2951 12.3492 21.1993C12.5013 21.1035 12.6329 20.9784 12.7362 20.8313C12.8377 20.6875 12.9095 20.525 12.9475 20.3532C12.9855 20.1814 12.9889 20.0037 12.9575 19.8306L12.7169 18.5031C12.6591 18.1908 12.4932 17.9087 12.2483 17.7063C12.0034 17.5039 11.6952 17.3942 11.3775 17.3962C11.3 17.3962 11.2217 17.4029 11.1425 17.4163L5.7675 18.3394V7.73562C5.7675 7.4375 8.39625 6.50937 12.0512 5.825ZM20 20.0394C18.3094 20.0394 16.9387 18.7038 16.9387 17.0569C16.9387 15.41 18.3094 14.0744 20 14.0744C21.6906 14.0744 23.0612 15.41 23.0612 17.0569C23.0612 18.7038 21.6906 20.0394 20 20.0394ZM22.09 22.6694C22.09 23.795 21.1537 24.7069 20 24.7069C18.8463 24.7069 17.9113 23.795 17.9113 22.6694C17.9113 21.5462 18.8463 20.6344 20 20.6344C21.1537 20.6344 22.09 21.5469 22.09 22.6694ZM14.6656 24.8806C14.3212 24.8231 13.6694 24.5312 13.6694 24.1006V23.9762H16.3294V25.0731C15.7044 25.0225 15.1381 24.9594 14.6656 24.8806ZM13.6694 22.6694V22.545C13.6694 22.1144 14.3212 21.8225 14.6656 21.765C15.2174 21.6781 15.7724 21.6137 16.3294 21.5719V22.6694H13.6694ZM5.095 21.1862L4.855 19.8587C4.83886 19.7648 4.84156 19.6686 4.86295 19.5757C4.88434 19.4828 4.92399 19.3951 4.97959 19.3177C5.0352 19.2403 5.10564 19.1747 5.18683 19.1248C5.26802 19.0749 5.35833 19.0416 5.4525 19.0269L11.2481 18.0319C11.3424 18.014 11.4392 18.0148 11.5331 18.0343C11.627 18.0539 11.7161 18.0918 11.7954 18.1458C11.8746 18.1999 11.9424 18.269 11.9949 18.3493C12.0474 18.4296 12.0835 18.5195 12.1012 18.6138L12.3419 19.94C12.358 20.034 12.3553 20.1302 12.3339 20.2232C12.3124 20.3161 12.2727 20.4038 12.2171 20.4812C12.1614 20.5586 12.0909 20.6242 12.0096 20.6741C11.9284 20.724 11.838 20.7572 11.7438 20.7719L5.94938 21.7688C5.75897 21.8036 5.56251 21.762 5.40257 21.6529C5.24264 21.5439 5.13213 21.3762 5.095 21.1862ZM29.9963 32.9175C29.9963 33.98 27.185 34.6444 23.6706 34.91V33.1044H16.3294V34.91C12.815 34.6444 10.0037 33.9806 10.0037 32.9175V31.5669C7.455 31.28 5.7675 30.8562 5.7675 30.2969V28.2188H15.48V30.5469H17.3675V32.2256H18.7069V30.5469H21.295V32.2256H22.6356V30.5469H24.5219V28.2188H34.235V30.2962C34.235 30.8562 32.5481 31.2794 29.9981 31.5662V32.9175H29.9963Z" fill="#FAFAFA"/>
<path d="M6.28062 21.3433L11.2856 20.4833C11.6312 20.4227 11.8694 20.1402 11.8169 19.8514L11.64 18.8714C11.5875 18.5833 11.265 18.3964 10.9187 18.4564L5.91249 19.3164C5.56749 19.3758 5.32874 19.6577 5.38062 19.9464L5.55812 20.9283C5.61062 21.2164 5.93437 21.402 6.28062 21.3433ZM13.6656 5.14641C14.4187 5.14641 15.0306 4.55203 15.0306 3.81766C15.0306 3.08328 14.4187 2.48828 13.6656 2.48828C12.9137 2.48828 12.3019 3.08328 12.3019 3.81766C12.3019 4.55203 12.9137 5.14641 13.6656 5.14641Z" fill="#FAFAFA"/>
<path d="M26.3345 5.14773C27.0883 5.14773 27.6995 4.55283 27.6995 3.81898C27.6995 3.08514 27.0883 2.49023 26.3345 2.49023C25.5806 2.49023 24.9695 3.08514 24.9695 3.81898C24.9695 4.55283 25.5806 5.14773 26.3345 5.14773Z" fill="#FAFAFA"/>
</svg>
