<svg width="40" height="40" viewBox="0 0 40 40" fill="none" xmlns="http://www.w3.org/2000/svg">
<path d="M38.3045 33.4638C36.6488 32.1882 32.2407 28.6651 28.1351 24.4313C25.4063 21.6157 24.2457 18.7969 22.177 16.6632C20.3032 14.7307 18.5988 13.6044 18.5988 13.6044L18.1188 14.0994L14.8763 10.7557L16.1288 9.46382C16.2308 9.35785 16.2878 9.21651 16.2878 9.06944C16.2878 8.92238 16.2308 8.78103 16.1288 8.67507L15.8701 8.40819C15.8713 8.40694 19.5563 3.44819 24.2157 4.81944C24.757 4.98007 25.2395 5.25319 25.3763 5.11382C25.5626 4.92257 24.8532 4.18757 24.4376 3.76257C18.5432 -2.26868 12.0413 4.45257 12.0382 4.45569L11.8088 4.21882C11.7595 4.16728 11.7002 4.12627 11.6346 4.09825C11.5689 4.07023 11.4983 4.05578 11.427 4.05578C11.3556 4.05578 11.285 4.07023 11.2193 4.09825C11.1537 4.12627 11.0944 4.16728 11.0451 4.21882L5.27071 10.1738C5.16873 10.2798 5.11177 10.4211 5.11177 10.5682C5.11177 10.7153 5.16873 10.8566 5.27071 10.9626C5.27071 10.9626 5.97758 12.1994 4.12383 12.4219C3.37758 12.5126 2.91008 12.6807 2.64508 12.9026C2.23142 13.3198 1.81913 13.7383 1.40821 14.1582C1.30623 14.2642 1.24927 14.4055 1.24927 14.5526C1.24927 14.6996 1.30623 14.841 1.40821 14.9469L5.72946 19.4044C5.77887 19.456 5.8382 19.497 5.90388 19.525C5.96956 19.5531 6.04023 19.5675 6.11164 19.5675C6.18305 19.5675 6.25373 19.5531 6.31941 19.525C6.38509 19.497 6.44442 19.456 6.49383 19.4044C6.49383 19.4044 7.68508 18.1607 7.71071 18.1282C7.92508 17.8544 8.08883 17.3732 8.17508 16.6032C8.39258 14.6907 9.59008 15.4207 9.59008 15.4207C9.63946 15.4724 9.69881 15.5136 9.76456 15.5417C9.8303 15.5699 9.90107 15.5844 9.97258 15.5844C10.0441 15.5844 10.1149 15.5699 10.1806 15.5417C10.2464 15.5136 10.3057 15.4724 10.3551 15.4207L11.6076 14.1288L14.8488 17.4719L14.3688 17.9676C14.3688 17.9676 15.4613 19.7257 17.3351 21.6582C19.4032 23.7913 22.137 24.9882 24.8663 27.8038C28.9707 32.0376 32.3863 36.5832 33.6251 38.2913C34.0926 38.9344 34.167 38.8751 34.7376 38.2857L36.5182 36.4494L38.2976 34.6138C38.8695 34.0226 38.9282 33.9463 38.3045 33.4638Z" fill="#FAFAFA"/>
<path d="M21.2549 14.1814C21.7914 14.6659 22.3119 15.1679 22.8155 15.6864C23.8105 16.7127 24.643 17.8608 25.4774 19.0864L31.0662 13.497C32.1025 13.7503 33.1866 13.7324 34.2141 13.445C35.2415 13.1576 36.1775 12.6104 36.932 11.8561C37.6865 11.1019 38.2341 10.166 38.5218 9.13866C38.8096 8.11134 38.8279 7.02723 38.5749 5.99079L33.5024 11.0633L29.9024 10.0989L28.9374 6.49704L34.0087 1.42766C32.9725 1.17413 31.8885 1.19222 30.8614 1.48017C29.8343 1.76812 28.8989 2.3162 28.1455 3.07141C27.3908 3.82496 26.8431 4.76028 26.555 5.78715C26.267 6.81402 26.2485 7.89779 26.5012 8.93392L21.2549 14.1814ZM16.5555 22.1439C16.0197 21.5903 15.5029 21.0185 15.0062 20.4295L8.93305 26.5033C7.89694 26.2503 6.81311 26.2686 5.78613 26.5564C4.75914 26.8442 3.82366 27.3918 3.06992 28.1464C0.643047 30.5714 0.643672 34.5052 3.06992 36.9308C3.64652 37.5078 4.33117 37.9656 5.08475 38.2779C5.83833 38.5902 6.64607 38.7509 7.4618 38.7509C8.27753 38.7509 9.08527 38.5902 9.83885 38.2779C10.5924 37.9656 11.2771 37.5078 11.8537 36.9308C12.6083 36.1767 13.156 35.2409 13.444 34.2136C13.732 33.1864 13.7506 32.1023 13.498 31.0658L19.7505 24.8139C18.6005 23.9777 17.5212 23.1395 16.5555 22.1439ZM8.4268 36.1389L4.82617 35.1739L3.8618 31.5727L6.49805 28.9383L10.098 29.9014L11.0624 33.5033L8.4268 36.1389Z" fill="#FAFAFA"/>
</svg>
