<svg width="40" height="40" viewBox="0 0 40 40" fill="none" xmlns="http://www.w3.org/2000/svg">
<path d="M38.75 37.2038C38.75 36.7394 38.4831 36.3456 38.1081 36.1262C38.2406 35.9056 38.3114 35.6535 38.3131 35.3962C38.3141 35.0185 38.1651 34.6559 37.8988 34.388C37.6326 34.1201 37.2708 33.9688 36.8931 33.9675C36.8638 33.9675 36.8325 33.9762 36.8025 33.98V33.8031C36.8025 33.4 36.4762 33.0719 36.075 33.0719C35.9731 33.0719 35.8794 33.0987 35.7919 33.1381V32.6213H36.9056V29.2788H36.0988V26.4937H36.9056V23.1506H36.0988V20.365H36.9056V17.0219H36.0988V14.2362H36.9056V10.8938H36.0988V8.10812H36.9056V3.09438H29.5287V1.25H9.85687V3.65125H7.93562V3.09438H2.36437V30.95H1.25V32.6213H2.36437V38.75H38.75V38.1356H38.3394C38.5894 37.9037 38.75 37.5731 38.75 37.2038ZM24.6488 8.10875H27.4344V10.8944H24.6488V8.10875ZM24.6488 14.2362H27.4344V17.0219H24.6488V14.2362ZM24.6488 20.365H27.4344V23.1506H24.6488V20.365ZM24.6488 26.4937H27.4344V29.2794H24.6488V26.4937ZM19.0775 8.10875H21.8631V10.8944H19.0775V8.10875ZM19.0775 14.2362H21.8631V17.0219H19.0775V14.2362ZM19.0775 20.365H21.8631V23.1506H19.0775V20.365ZM19.0775 26.4937H21.8631V29.2794H19.0775V26.4937ZM10.2975 38.1356H8.62625V33.7363H10.2975V38.1356ZM12.5256 38.1356H10.8544V33.7363H12.5256V38.1356ZM16.2919 38.1356H13.0825V33.1787H8.06875V38.1356H3.47813V32.6219H16.2919V38.1356ZM16.2919 26.4937V30.9506H7.935V25.6581H16.2919V26.4937ZM16.2919 20.365V23.9862H7.935V19.5294H16.2919V20.365ZM16.2919 14.2362V17.8575H7.935V13.4006H16.2919V14.2362ZM16.2919 8.10875V11.73H7.935V7.27313H16.2919V8.10875ZM16.2919 5.60125H7.935V4.20812H16.2919V5.60125ZM19.0775 38.1356H17.2337V37.5213H19.0775V32.6219H21.8631V37.5213H24.6488V32.6219H27.4344V37.5213H29.9844C30.1106 37.8181 30.365 38.0419 30.6775 38.1356H19.0775ZM30.2206 34.5394V32.6219H33.0063V33.4762C32.9388 33.4625 32.8744 33.44 32.8019 33.44C32.5953 33.4408 32.3933 33.5005 32.2194 33.6119C32.0456 33.7234 31.907 33.8821 31.82 34.0694C31.669 34.0168 31.5105 33.9888 31.3506 33.9862C30.8912 33.9862 30.4862 34.205 30.2206 34.5394ZM31.0619 37.0938C30.8612 37.0938 30.7006 37.2956 30.7006 37.0938C30.7006 36.9974 30.7389 36.9051 30.807 36.837C30.8751 36.7689 30.9674 36.7306 31.0637 36.7306C31.1601 36.7306 31.2524 36.7689 31.3205 36.837C31.3886 36.9051 31.4269 36.9974 31.4269 37.0938C31.4269 37.2956 31.2656 37.0938 31.0619 37.0938ZM31.4519 35.1263C31.0494 35.1263 30.7231 35.7663 30.7231 35.3581C30.7231 35.1645 30.8 34.9788 30.9369 34.8419C31.0738 34.705 31.2595 34.6281 31.4531 34.6281C31.6467 34.6281 31.8324 34.705 31.9693 34.8419C32.1062 34.9788 32.1831 35.1645 32.1831 35.3581C32.1831 35.7669 31.8594 35.1263 31.4519 35.1263ZM33.0356 37.0913C32.6344 37.0913 32.3081 37.6531 32.3081 37.2481C32.3085 37.055 32.3851 36.8699 32.5214 36.7332C32.6577 36.5964 32.8426 36.5191 33.0356 36.5181C33.1311 36.5183 33.2257 36.5373 33.3138 36.5741C33.402 36.611 33.482 36.6648 33.5492 36.7327C33.6165 36.8005 33.6697 36.881 33.7057 36.9694C33.7418 37.0579 33.76 37.1526 33.7594 37.2481C33.76 37.6531 33.4406 37.0913 33.0356 37.0913ZM33.9506 34.1706C33.9506 34.0403 34.0024 33.9152 34.0946 33.823C34.1868 33.7309 34.3118 33.6791 34.4422 33.6791C34.5726 33.6791 34.6976 33.7309 34.7898 33.823C34.882 33.9152 34.9338 34.0403 34.9338 34.1706C34.9338 34.4431 34.715 34.0331 34.4406 34.0331C34.1694 34.0331 33.9506 34.4425 33.9506 34.1706ZM34.8056 35.975C34.605 35.975 34.4444 36.1775 34.4444 35.975C34.4444 35.7756 34.605 35.6125 34.8056 35.6125C34.8534 35.6122 34.9008 35.6213 34.9451 35.6394C34.9894 35.6574 35.0296 35.6841 35.0636 35.7178C35.0975 35.7515 35.1244 35.7916 35.1428 35.8357C35.1612 35.8798 35.1706 35.9272 35.1706 35.975C35.1706 36.1775 35.0112 35.975 34.8056 35.975ZM35.1769 29.2794H29.6056V26.4937H35.1769V29.2794ZM35.1769 23.1506H29.6056V20.365H35.1769V23.1506ZM35.1769 17.0219H29.6056V14.2362H35.1769V17.0219ZM35.1769 10.8944H29.6056V8.10875H35.1769V10.8944ZM35.7988 37.29C35.5269 37.29 35.3088 37.6994 35.3088 37.4275C35.3064 37.3616 35.3174 37.2958 35.341 37.2342C35.3646 37.1726 35.4004 37.1163 35.4462 37.0689C35.492 37.0214 35.5469 36.9836 35.6077 36.9578C35.6684 36.932 35.7337 36.9187 35.7997 36.9187C35.8657 36.9187 35.931 36.932 35.9917 36.9578C36.0525 36.9836 36.1074 37.0214 36.1532 37.0689C36.199 37.1163 36.2348 37.1726 36.2584 37.2342C36.282 37.2958 36.293 37.3616 36.2906 37.4275C36.2906 37.6994 36.0737 37.29 35.7988 37.29ZM35.9256 34.9225C35.7244 34.9225 35.5644 35.1875 35.5644 34.9856C35.5644 34.7794 35.7244 34.6181 35.9256 34.6181C36.1237 34.6181 36.2906 34.7794 36.2906 34.9856C36.2906 35.1875 36.1244 34.9225 35.9256 34.9225ZM36.795 36.0419C36.795 35.9457 36.8332 35.8534 36.9013 35.7853C36.9693 35.7173 37.0616 35.6791 37.1578 35.6791C37.254 35.6791 37.3463 35.7173 37.4144 35.7853C37.4824 35.8534 37.5206 35.9457 37.5206 36.0419C37.5206 36.2438 37.3606 35.9825 37.16 35.9825C36.9562 35.9825 36.795 36.2438 36.795 36.0419ZM37.4925 37.3425C37.2912 37.3425 37.1263 37.5488 37.1263 37.3425C37.1263 37.1437 37.2912 36.9781 37.4925 36.9781C37.6919 36.9781 37.8538 37.1437 37.8538 37.3425C37.8538 37.5488 37.6925 37.3425 37.4925 37.3425Z" fill="#FAFAFA"/>
</svg>
