<svg width="40" height="40" viewBox="0 0 40 40" fill="none" xmlns="http://www.w3.org/2000/svg">
<path d="M9.14498 19.1919H5.85498L15.0656 34.145L38.75 1.25H35.46L15.0656 23.6775L9.14498 19.1919Z" fill="#FAFAFA"/>
<path d="M32.8288 34.1445C32.8288 34.5077 32.5344 34.802 32.1706 34.802H5.855C5.68056 34.802 5.51326 34.7328 5.38986 34.6095C5.26645 34.4862 5.19704 34.319 5.19687 34.1445V7.82828C5.19687 7.46453 5.49188 7.17016 5.855 7.17016H23.8512L27.4412 3.22266H2.56562C2.21685 3.22348 1.8826 3.36244 1.63603 3.60913C1.38946 3.85581 1.25066 4.19013 1.25 4.53891V37.4333C1.25 38.1614 1.83938 38.7495 2.56562 38.7495H35.46C35.6328 38.7497 35.804 38.7158 35.9637 38.6497C36.1234 38.5837 36.2685 38.4868 36.3907 38.3646C36.5129 38.2424 36.6098 38.0973 36.6758 37.9376C36.7419 37.7779 36.7758 37.6067 36.7756 37.4339V11.872L32.8288 17.3552V34.1445Z" fill="#FAFAFA"/>
</svg>
