<svg width="80" height="80" viewBox="0 0 80 80" fill="none" xmlns="http://www.w3.org/2000/svg">
<rect x="0.5" y="0.5" width="79" height="79" rx="39.5" stroke="#FAFAFA" stroke-opacity="0.24"/>
<path fill-rule="evenodd" clip-rule="evenodd" d="M39.3545 49.9219H35.102C34.9745 49.9219 34.8657 50.0113 34.8657 50.1169V54.4144C34.8657 54.52 34.9745 54.61 35.102 54.61H39.3545C39.4826 54.61 39.5913 54.52 39.5913 54.4144V50.1169C39.5913 50.0113 39.4826 49.9219 39.3545 49.9219ZM35.752 42.8906H35.1613C35.1227 42.8904 35.0843 42.8978 35.0485 42.9124C35.0127 42.927 34.9801 42.9485 34.9526 42.9758C34.9252 43.003 34.9034 43.0354 34.8884 43.0711C34.8735 43.1068 34.8658 43.1451 34.8657 43.1838V44.9419C34.8657 45.1031 34.9982 45.235 35.1613 45.235H35.752C35.9145 45.235 36.047 45.1031 36.047 44.9419V43.1838C36.0469 43.1451 36.0392 43.1069 36.0243 43.0712C36.0094 43.0356 35.9877 43.0032 35.9603 42.976C35.9329 42.9488 35.9004 42.9272 35.8646 42.9126C35.8289 42.8979 35.7906 42.8905 35.752 42.8906ZM37.5232 42.8906H36.9326C36.7701 42.8906 36.6376 43.0219 36.6376 43.1838V44.9419C36.6376 45.1031 36.7701 45.235 36.9326 45.235H37.5232C37.5619 45.2353 37.6003 45.2279 37.6361 45.2132C37.6719 45.1986 37.7045 45.1771 37.7319 45.1499C37.7594 45.1226 37.7812 45.0902 37.7961 45.0545C37.811 45.0188 37.8188 44.9806 37.8188 44.9419V43.1838C37.8188 43.1451 37.811 43.1068 37.7961 43.0711C37.7812 43.0354 37.7594 43.003 37.7319 42.9758C37.7045 42.9485 37.6719 42.927 37.6361 42.9124C37.6003 42.8978 37.5619 42.8904 37.5232 42.8906ZM39.2957 42.8906H38.7051C38.6664 42.8904 38.6281 42.8978 38.5923 42.9124C38.5564 42.927 38.5239 42.9485 38.4964 42.9758C38.4689 43.003 38.4471 43.0354 38.4322 43.0711C38.4173 43.1068 38.4096 43.1451 38.4095 43.1838V44.9419C38.4095 45.1031 38.542 45.235 38.7051 45.235H39.2957C39.4582 45.235 39.5913 45.1031 39.5913 44.9419V43.1838C39.5913 43.1451 39.5835 43.1068 39.5686 43.0711C39.5537 43.0354 39.5319 43.003 39.5044 42.9758C39.477 42.9485 39.4444 42.927 39.4086 42.9124C39.3728 42.8978 39.3344 42.8904 39.2957 42.8906Z" fill="#FAFAFA"/>
<path fill-rule="evenodd" clip-rule="evenodd" d="M49.9564 30.9963V32.7231C50.9064 32.7231 51.6807 33.4819 51.6964 34.42L49.0857 36.1469V36.6087C49.0857 38.1287 50.222 39.3894 51.697 39.6V51.9563C51.697 52.9081 50.9157 53.6831 49.9564 53.6831C48.997 53.6831 48.2157 52.9088 48.2157 51.9563C48.2157 50.3125 47.0507 48.9356 45.497 48.5888V38.8675H47.3039V36.4844C47.3029 36.1627 47.1743 35.8545 46.9464 35.6274C46.7186 35.4004 46.4099 35.273 46.0882 35.2731H44.4576C42.7639 34.3581 40.6889 33.7513 38.4101 33.595V31.6613C40.7764 31.1275 42.5445 29.0319 42.5445 26.5231C42.5439 23.6106 40.1639 21.25 37.2276 21.25C34.2914 21.25 31.9126 23.6106 31.9126 26.5237C31.9126 29.0331 33.6801 31.1287 36.0464 31.6619V33.5956C33.7682 33.7519 31.6926 34.3581 29.9989 35.2738H28.3689C28.0472 35.2736 27.7386 35.401 27.5109 35.6281C27.2831 35.8552 27.1547 36.1634 27.1539 36.485V38.8681H28.9601V55.1562H28.3689C28.0472 55.1561 27.7386 55.2835 27.5109 55.5106C27.2831 55.7377 27.1547 56.0459 27.1539 56.3675V56.5013C26.9742 56.6086 26.8254 56.7606 26.7219 56.9425C26.6184 57.1245 26.5637 57.3301 26.5632 57.5394V58.75H47.8951V57.5387C47.8951 57.0981 47.6576 56.7125 47.3045 56.5006V56.3669C47.3035 56.0452 47.175 55.737 46.9471 55.5099C46.7192 55.2829 46.4106 55.1555 46.0889 55.1556H45.4982V50.4106C45.7896 50.5507 46.0357 50.7698 46.2085 51.043C46.3813 51.3161 46.4739 51.6324 46.4757 51.9556C46.4757 53.86 48.0376 55.4094 49.957 55.4094C51.8764 55.4094 53.4382 53.86 53.4382 51.9556V34.4494C53.4376 32.545 51.8757 30.9963 49.9564 30.9963ZM32.5032 26.5237C32.5032 23.9344 34.6189 21.8362 37.2282 21.8362C39.8382 21.8362 41.9539 23.9344 41.9539 26.5237C41.9539 29.1131 39.8382 31.2113 37.2282 31.2113C34.6189 31.2113 32.5032 29.1119 32.5032 26.5237ZM27.7782 38.2425V36.4844C27.7782 36.1619 28.0439 35.8981 28.3682 35.8981H46.087C46.412 35.8981 46.6776 36.1619 46.6776 36.4844V38.2425H27.7782ZM39.5914 45.8206H34.8657C34.7098 45.8208 34.5601 45.7592 34.4495 45.6494C34.3388 45.5395 34.2761 45.3903 34.2751 45.2344V44.1919C34.0969 44.0904 33.9485 43.9439 33.8448 43.7669C33.7411 43.59 33.6858 43.3888 33.6845 43.1838V40.2931C33.687 39.9814 33.8126 39.6832 34.034 39.4637C34.2554 39.2442 34.5546 39.1211 34.8664 39.1213H39.592C40.2414 39.1213 40.7726 39.6488 40.7726 40.2931V43.1838C40.7726 43.6138 40.5326 43.9881 40.1826 44.1919V45.2344C40.1811 45.3903 40.1182 45.5393 40.0075 45.649C39.8968 45.7588 39.7473 45.8205 39.5914 45.8206ZM40.1814 46.9925V48.1644C40.1804 48.3202 40.1178 48.4693 40.0072 48.5791C39.8967 48.689 39.7472 48.7506 39.5914 48.7506H34.8657C34.7098 48.7508 34.5601 48.6892 34.4495 48.5794C34.3388 48.4695 34.2761 48.3203 34.2751 48.1644V46.9925C34.2751 46.67 34.5414 46.4062 34.8657 46.4062H39.5914C39.9157 46.4062 40.1814 46.67 40.1814 46.9925ZM46.0876 55.7812C46.4126 55.7812 46.6782 56.045 46.6782 56.3675V56.9538C47.0032 56.9538 47.2689 57.2175 47.2689 57.54V58.125H27.1876V57.5387C27.1876 57.2163 27.4539 56.9525 27.7782 56.9525V56.3662C27.7782 56.0438 28.0439 55.78 28.3682 55.78H46.0876V55.7812ZM34.8982 55.1562C34.5432 55.0681 34.2751 54.7769 34.2751 54.4137V50.1163C34.2751 49.6856 34.6464 49.3356 35.102 49.3356H39.3545C39.8107 49.3356 40.1814 49.6856 40.1814 50.1163V54.4137C40.1814 54.7762 39.9139 55.0681 39.5589 55.1562H34.8982ZM51.697 37.8287C51.5114 37.7639 51.3429 37.6579 51.2043 37.5185C51.0656 37.3792 50.9603 37.2103 50.8964 37.0244L51.697 36.4937V37.8287Z" fill="#FAFAFA"/>
<path fill-rule="evenodd" clip-rule="evenodd" d="M37.4795 29.7595L37.7677 29.9245L38.4577 30.3208V28.7377L37.7677 29.1333L37.4795 29.2989C37.4657 29.2674 37.4432 29.2406 37.4146 29.2214C37.3861 29.2023 37.3527 29.1917 37.3183 29.1908H37.1377C37.1032 29.191 37.0696 29.2014 37.041 29.2206C37.0125 29.2398 36.9902 29.2671 36.977 29.2989L36.6883 29.1333L35.9983 28.7377V30.3208L36.6883 29.9245L36.977 29.7595C36.9902 29.7914 37.0125 29.8186 37.041 29.8378C37.0696 29.8571 37.1032 29.8674 37.1377 29.8677H37.3183C37.3527 29.8668 37.3861 29.8561 37.4146 29.837C37.4432 29.8179 37.4657 29.791 37.4795 29.7595ZM38.0152 27.5008C38.2183 27.337 38.3277 27.1064 38.3027 26.8945C38.187 27.0758 38.0264 27.207 37.8395 27.2977C37.6527 27.3883 37.4408 27.4333 37.2283 27.4339C37.0171 27.4342 36.8084 27.3879 36.617 27.2983C36.4274 27.2102 36.2666 27.0702 36.1533 26.8945C36.1289 27.1064 36.2383 27.337 36.4414 27.5008C36.6427 27.6664 36.9352 27.7633 37.2283 27.7627C37.5208 27.7639 37.8139 27.667 38.0152 27.5008Z" fill="#FAFAFA"/>
<path fill-rule="evenodd" clip-rule="evenodd" d="M40.2639 25.7623C40.2631 25.4785 40.226 25.2064 40.1527 24.946C40.1733 24.9239 40.1971 24.905 40.2233 24.8898C40.3001 24.8441 40.287 24.8866 40.287 24.7779V24.7204C40.287 24.676 40.282 24.6673 40.2583 24.6554C40.1822 24.6156 40.1016 24.5852 40.0183 24.5648C39.7843 24.0186 39.3952 23.5532 38.8992 23.2261C38.4032 22.899 37.8221 22.7246 37.228 22.7246C36.6338 22.7246 36.0527 22.899 35.5567 23.2261C35.0607 23.5532 34.6716 24.0186 34.4377 24.5648C34.3541 24.5845 34.2734 24.615 34.1977 24.6554C34.1739 24.6679 34.1689 24.676 34.1689 24.7204V24.7785C34.1689 24.8873 34.1552 24.8441 34.2333 24.8904C34.2583 24.905 34.2814 24.9237 34.3027 24.9466C34.1872 25.3639 34.1623 25.801 34.2296 26.2286C34.2969 26.6562 34.455 27.0645 34.6931 27.4261C34.9312 27.7876 35.2439 28.094 35.6102 28.3248C35.9765 28.5556 36.3879 28.7053 36.8168 28.764C37.2457 28.8227 37.6822 28.7889 38.097 28.6651C38.5118 28.5412 38.8953 28.33 39.2218 28.0457C39.5483 27.7614 39.8102 27.4106 39.9899 27.0167C40.1696 26.6229 40.2631 26.1952 40.2639 25.7623ZM37.2283 23.0848C37.7126 23.0846 38.1878 23.2159 38.6034 23.4646C39.0189 23.7134 39.3591 24.0703 39.5877 24.4973C39.2573 24.469 38.9252 24.4672 38.5945 24.4916C38.2183 24.5248 37.9045 24.6091 37.6483 24.7404C37.4077 24.8598 37.047 24.8598 36.807 24.7404C36.5502 24.6085 36.2364 24.5241 35.8608 24.4916C35.5299 24.4671 35.1976 24.469 34.867 24.4973C35.0963 24.0704 35.4369 23.7137 35.8527 23.465C36.2684 23.2163 36.7438 23.0849 37.2283 23.0848ZM34.5508 25.7623L34.552 25.7016C34.6458 26.0591 34.857 26.291 35.1739 26.4104C35.5161 26.5376 35.8934 26.5334 36.2327 26.3985C36.417 26.3248 36.5795 26.2079 36.7089 26.0191C36.9345 25.6873 36.867 25.4798 36.9833 25.1948C37.0852 24.946 37.3702 24.946 37.4714 25.1948C37.5889 25.4798 37.5208 25.6873 37.7464 26.0191C37.8751 26.2085 38.0377 26.3248 38.2227 26.3985C38.5602 26.5335 38.9408 26.5379 39.2814 26.4104C39.5989 26.2916 39.8102 26.0591 39.9039 25.7016L39.9045 25.7623C39.8894 26.4622 39.6007 27.1284 39.1004 27.618C38.6 28.1077 37.9277 28.3819 37.2277 28.3819C36.5276 28.3819 35.8553 28.1077 35.3549 27.618C34.8546 27.1284 34.5659 26.4622 34.5508 25.7623Z" fill="#FAFAFA"/>
</svg>
