<svg width="40" height="40" viewBox="0 0 40 40" fill="none" xmlns="http://www.w3.org/2000/svg">
<path fill-rule="evenodd" clip-rule="evenodd" d="M19.3545 29.9219H15.102C14.9745 29.9219 14.8657 30.0113 14.8657 30.1169V34.4144C14.8657 34.52 14.9745 34.61 15.102 34.61H19.3545C19.4826 34.61 19.5913 34.52 19.5913 34.4144V30.1169C19.5913 30.0113 19.4826 29.9219 19.3545 29.9219ZM15.752 22.8906H15.1613C15.1227 22.8904 15.0843 22.8978 15.0485 22.9124C15.0127 22.927 14.9801 22.9485 14.9526 22.9758C14.9252 23.003 14.9034 23.0354 14.8884 23.0711C14.8735 23.1068 14.8658 23.1451 14.8657 23.1838V24.9419C14.8657 25.1031 14.9982 25.235 15.1613 25.235H15.752C15.9145 25.235 16.047 25.1031 16.047 24.9419V23.1838C16.0469 23.1451 16.0392 23.1069 16.0243 23.0712C16.0094 23.0356 15.9877 23.0032 15.9603 22.976C15.9329 22.9488 15.9004 22.9272 15.8646 22.9126C15.8289 22.8979 15.7906 22.8905 15.752 22.8906ZM17.5232 22.8906H16.9326C16.7701 22.8906 16.6376 23.0219 16.6376 23.1838V24.9419C16.6376 25.1031 16.7701 25.235 16.9326 25.235H17.5232C17.5619 25.2353 17.6003 25.2279 17.6361 25.2132C17.6719 25.1986 17.7045 25.1771 17.7319 25.1499C17.7594 25.1226 17.7812 25.0902 17.7961 25.0545C17.811 25.0188 17.8188 24.9806 17.8188 24.9419V23.1838C17.8188 23.1451 17.811 23.1068 17.7961 23.0711C17.7812 23.0354 17.7594 23.003 17.7319 22.9758C17.7045 22.9485 17.6719 22.927 17.6361 22.9124C17.6003 22.8978 17.5619 22.8904 17.5232 22.8906ZM19.2957 22.8906H18.7051C18.6664 22.8904 18.6281 22.8978 18.5923 22.9124C18.5564 22.927 18.5239 22.9485 18.4964 22.9758C18.4689 23.003 18.4471 23.0354 18.4322 23.0711C18.4173 23.1068 18.4096 23.1451 18.4095 23.1838V24.9419C18.4095 25.1031 18.542 25.235 18.7051 25.235H19.2957C19.4582 25.235 19.5913 25.1031 19.5913 24.9419V23.1838C19.5913 23.1451 19.5835 23.1068 19.5686 23.0711C19.5537 23.0354 19.5319 23.003 19.5044 22.9758C19.477 22.9485 19.4444 22.927 19.4086 22.9124C19.3728 22.8978 19.3344 22.8904 19.2957 22.8906Z" fill="#FAFAFA"/>
<path fill-rule="evenodd" clip-rule="evenodd" d="M29.9564 10.9963V12.7231C30.9064 12.7231 31.6807 13.4819 31.6964 14.42L29.0857 16.1469V16.6087C29.0857 18.1287 30.222 19.3894 31.697 19.6V31.9563C31.697 32.9081 30.9157 33.6831 29.9564 33.6831C28.997 33.6831 28.2157 32.9088 28.2157 31.9563C28.2157 30.3125 27.0507 28.9356 25.497 28.5888V18.8675H27.3039V16.4844C27.3029 16.1627 27.1743 15.8545 26.9464 15.6274C26.7186 15.4004 26.4099 15.273 26.0882 15.2731H24.4576C22.7639 14.3581 20.6889 13.7513 18.4101 13.595V11.6613C20.7764 11.1275 22.5445 9.03188 22.5445 6.52313C22.5439 3.61063 20.1639 1.25 17.2276 1.25C14.2914 1.25 11.9126 3.61063 11.9126 6.52375C11.9126 9.03312 13.6801 11.1287 16.0464 11.6619V13.5956C13.7682 13.7519 11.6926 14.3581 9.99886 15.2738H8.36886C8.04722 15.2736 7.73865 15.401 7.51086 15.6281C7.28308 15.8552 7.15468 16.1634 7.15386 16.485V18.8681H8.96011V35.1562H8.36886C8.04722 35.1561 7.73865 35.2835 7.51086 35.5106C7.28308 35.7377 7.15468 36.0459 7.15386 36.3675V36.5013C6.97418 36.6086 6.82535 36.7606 6.72185 36.9425C6.61835 37.1245 6.56371 37.3301 6.56323 37.5394V38.75H27.8951V37.5387C27.8951 37.0981 27.6576 36.7125 27.3045 36.5006V36.3669C27.3035 36.0452 27.175 35.737 26.9471 35.5099C26.7192 35.2829 26.4106 35.1555 26.0889 35.1556H25.4982V30.4106C25.7896 30.5507 26.0357 30.7698 26.2085 31.043C26.3813 31.3161 26.4739 31.6324 26.4757 31.9556C26.4757 33.86 28.0376 35.4094 29.957 35.4094C31.8764 35.4094 33.4382 33.86 33.4382 31.9556V14.4494C33.4376 12.545 31.8757 10.9963 29.9564 10.9963ZM12.5032 6.52375C12.5032 3.93437 14.6189 1.83625 17.2282 1.83625C19.8382 1.83625 21.9539 3.93437 21.9539 6.52375C21.9539 9.11312 19.8382 11.2113 17.2282 11.2113C14.6189 11.2113 12.5032 9.11187 12.5032 6.52375ZM7.77823 18.2425V16.4844C7.77823 16.1619 8.04386 15.8981 8.36823 15.8981H26.087C26.412 15.8981 26.6776 16.1619 26.6776 16.4844V18.2425H7.77823ZM19.5914 25.8206H14.8657C14.7098 25.8208 14.5601 25.7592 14.4495 25.6494C14.3388 25.5395 14.2761 25.3903 14.2751 25.2344V24.1919C14.0969 24.0904 13.9485 23.9439 13.8448 23.7669C13.7411 23.59 13.6858 23.3888 13.6845 23.1838V20.2931C13.687 19.9814 13.8126 19.6832 14.034 19.4637C14.2554 19.2442 14.5546 19.1211 14.8664 19.1213H19.592C20.2414 19.1213 20.7726 19.6488 20.7726 20.2931V23.1838C20.7726 23.6138 20.5326 23.9881 20.1826 24.1919V25.2344C20.1811 25.3903 20.1182 25.5393 20.0075 25.649C19.8968 25.7588 19.7473 25.8205 19.5914 25.8206ZM20.1814 26.9925V28.1644C20.1804 28.3202 20.1178 28.4693 20.0072 28.5791C19.8967 28.689 19.7472 28.7506 19.5914 28.7506H14.8657C14.7098 28.7508 14.5601 28.6892 14.4495 28.5794C14.3388 28.4695 14.2761 28.3203 14.2751 28.1644V26.9925C14.2751 26.67 14.5414 26.4062 14.8657 26.4062H19.5914C19.9157 26.4062 20.1814 26.67 20.1814 26.9925ZM26.0876 35.7812C26.4126 35.7812 26.6782 36.045 26.6782 36.3675V36.9538C27.0032 36.9538 27.2689 37.2175 27.2689 37.54V38.125H7.18761V37.5387C7.18761 37.2163 7.45386 36.9525 7.77823 36.9525V36.3662C7.77823 36.0438 8.04386 35.78 8.36823 35.78H26.0876V35.7812ZM14.8982 35.1562C14.5432 35.0681 14.2751 34.7769 14.2751 34.4137V30.1163C14.2751 29.6856 14.6464 29.3356 15.102 29.3356H19.3545C19.8107 29.3356 20.1814 29.6856 20.1814 30.1163V34.4137C20.1814 34.7762 19.9139 35.0681 19.5589 35.1562H14.8982ZM31.697 17.8287C31.5114 17.7639 31.3429 17.6579 31.2043 17.5185C31.0656 17.3792 30.9603 17.2103 30.8964 17.0244L31.697 16.4937V17.8287Z" fill="#FAFAFA"/>
<path fill-rule="evenodd" clip-rule="evenodd" d="M17.4795 9.75953L17.7677 9.92453L18.4577 10.3208V8.73766L17.7677 9.13328L17.4795 9.29891C17.4657 9.26745 17.4432 9.24058 17.4146 9.22143C17.3861 9.20229 17.3527 9.19166 17.3183 9.19078H17.1377C17.1032 9.191 17.0696 9.20137 17.041 9.2206C17.0125 9.23984 16.9902 9.26708 16.977 9.29891L16.6883 9.13328L15.9983 8.73766V10.3208L16.6883 9.92453L16.977 9.75953C16.9902 9.79136 17.0125 9.8186 17.041 9.83783C17.0696 9.85707 17.1032 9.86744 17.1377 9.86766H17.3183C17.3527 9.86678 17.3861 9.85615 17.4146 9.837C17.4432 9.81786 17.4657 9.79099 17.4795 9.75953ZM18.0152 7.50078C18.2183 7.33703 18.3277 7.10641 18.3027 6.89453C18.187 7.07578 18.0264 7.20703 17.8395 7.29766C17.6527 7.38828 17.4408 7.43328 17.2283 7.43391C17.0171 7.43416 16.8084 7.38785 16.617 7.29828C16.4274 7.21023 16.2666 7.07023 16.1533 6.89453C16.1289 7.10641 16.2383 7.33703 16.4414 7.50078C16.6427 7.66641 16.9352 7.76328 17.2283 7.76266C17.5208 7.76391 17.8139 7.66703 18.0152 7.50078Z" fill="#FAFAFA"/>
<path fill-rule="evenodd" clip-rule="evenodd" d="M20.2639 5.76225C20.2631 5.4785 20.226 5.20642 20.1527 4.946C20.1733 4.92393 20.1971 4.90499 20.2233 4.88975C20.3001 4.84413 20.287 4.88663 20.287 4.77788V4.72038C20.287 4.676 20.282 4.66725 20.2583 4.65538C20.1822 4.61559 20.1016 4.58516 20.0183 4.56475C19.7843 4.01862 19.3952 3.55316 18.8992 3.22606C18.4032 2.89896 17.8221 2.72461 17.228 2.72461C16.6338 2.72461 16.0527 2.89896 15.5567 3.22606C15.0607 3.55316 14.6716 4.01862 14.4377 4.56475C14.3541 4.58453 14.2734 4.61499 14.1977 4.65538C14.1739 4.66788 14.1689 4.676 14.1689 4.72038V4.7785C14.1689 4.88725 14.1552 4.84413 14.2333 4.89038C14.2583 4.90496 14.2814 4.92371 14.3027 4.94663C14.1872 5.36385 14.1623 5.80095 14.2296 6.22859C14.2969 6.65623 14.455 7.06452 14.6931 7.42607C14.9312 7.78761 15.2439 8.09404 15.6102 8.3248C15.9765 8.55556 16.3879 8.7053 16.8168 8.76399C17.2457 8.82267 17.6822 8.78894 18.097 8.66505C18.5118 8.54116 18.8953 8.32999 19.2218 8.04569C19.5483 7.76139 19.8102 7.41056 19.9899 7.01672C20.1696 6.62289 20.2631 6.19516 20.2639 5.76225ZM17.2283 3.08475C17.7126 3.08456 18.1878 3.21586 18.6034 3.46462C19.0189 3.71338 19.3591 4.07029 19.5877 4.49725C19.2573 4.46904 18.9252 4.46716 18.5945 4.49163C18.2183 4.52475 17.9045 4.60913 17.6483 4.74038C17.4077 4.85975 17.047 4.85975 16.807 4.74038C16.5502 4.6085 16.2364 4.52413 15.8608 4.49163C15.5299 4.46712 15.1976 4.469 14.867 4.49725C15.0963 4.07045 15.4369 3.71374 15.8527 3.46503C16.2684 3.21631 16.7438 3.0849 17.2283 3.08475ZM14.5508 5.76225L14.552 5.70163C14.6458 6.05913 14.857 6.291 15.1739 6.41038C15.5161 6.53759 15.8934 6.53336 16.2327 6.3985C16.417 6.32475 16.5795 6.20788 16.7089 6.01913C16.9345 5.68725 16.867 5.47975 16.9833 5.19475C17.0852 4.946 17.3702 4.946 17.4714 5.19475C17.5889 5.47975 17.5208 5.68725 17.7464 6.01913C17.8751 6.2085 18.0377 6.32475 18.2227 6.3985C18.5602 6.5335 18.9408 6.53788 19.2814 6.41038C19.5989 6.29163 19.8102 6.05913 19.9039 5.70163L19.9045 5.76225C19.8894 6.46219 19.6007 7.12836 19.1004 7.61803C18.6 8.10769 17.9277 8.3819 17.2277 8.3819C16.5276 8.3819 15.8553 8.10769 15.3549 7.61803C14.8546 7.12836 14.5659 6.46219 14.5508 5.76225Z" fill="#FAFAFA"/>
</svg>
