<svg width="80" height="80" viewBox="0 0 80 80" fill="none" xmlns="http://www.w3.org/2000/svg">
<rect x="0.5" y="0.5" width="79" height="79" rx="39.5" stroke="#FAFAFA" stroke-opacity="0.24"/>
<path d="M29.145 39.1919H25.855L35.0656 54.145L58.75 21.25H55.46L35.0656 43.6775L29.145 39.1919Z" fill="#FAFAFA"/>
<path d="M52.8288 54.1445C52.8288 54.5077 52.5344 54.802 52.1706 54.802H25.855C25.6806 54.802 25.5133 54.7328 25.3899 54.6095C25.2665 54.4862 25.197 54.319 25.1969 54.1445V27.8283C25.1969 27.4645 25.4919 27.1702 25.855 27.1702H43.8512L47.4412 23.2227H22.5656C22.2168 23.2235 21.8826 23.3624 21.636 23.6091C21.3895 23.8558 21.2507 24.1901 21.25 24.5389V57.4333C21.25 58.1614 21.8394 58.7495 22.5656 58.7495H55.46C55.6328 58.7497 55.804 58.7158 55.9637 58.6497C56.1234 58.5837 56.2685 58.4868 56.3907 58.3646C56.5129 58.2424 56.6098 58.0973 56.6758 57.9376C56.7419 57.7779 56.7758 57.6067 56.7756 57.4339V31.872L52.8288 37.3552V54.1445Z" fill="#FAFAFA"/>
</svg>
