<svg width="24" height="30" viewBox="0 0 24 30" fill="none" xmlns="http://www.w3.org/2000/svg">
<path d="M11.8267 27.795C14.96 25.0683 17.4367 22.2956 19.2567 19.4767C21.0767 16.6578 21.9867 14.2189 21.9867 12.16C21.9867 9.11111 21.0217 6.59444 19.0917 4.61C17.1595 2.62667 14.7378 1.635 11.8267 1.635C8.91557 1.635 6.4939 2.62667 4.56168 4.61C2.62946 6.59333 1.66446 9.11 1.66668 12.16C1.66668 14.2178 2.57668 16.6567 4.39668 19.4767C6.21668 22.2967 8.69335 25.0694 11.8267 27.795ZM11.0433 29.1317C10.7833 29.0461 10.5433 28.9072 10.3233 28.715C9.13779 27.625 7.93557 26.4111 6.71668 25.0733C5.4989 23.7367 4.39334 22.3517 3.40001 20.9183C2.40668 19.485 1.59112 18.0222 0.953345 16.53C0.315567 15.0378 -0.00221065 13.5811 1.15741e-05 12.16C1.15741e-05 8.63444 1.14779 5.72667 3.44335 3.43667C5.74001 1.14556 8.53446 0 11.8267 0C15.1189 0 17.9133 1.14556 20.21 3.43667C22.5056 5.72667 23.6533 8.63444 23.6533 12.16C23.6533 13.5811 23.3356 15.0328 22.7 16.515C22.0645 17.9961 21.2545 19.4583 20.27 20.9017C19.2867 22.3461 18.1861 23.7317 16.9683 25.0583C15.7506 26.385 14.5478 27.5933 13.36 28.6833C13.14 28.8756 12.8945 29.02 12.6233 29.1167C12.3522 29.2133 12.0861 29.2611 11.825 29.26C11.5639 29.2589 11.3045 29.2161 11.0433 29.1317ZM13.73 13.765C14.2545 13.2406 14.5167 12.6056 14.5167 11.86C14.5167 11.1133 14.2545 10.4778 13.73 9.95333C13.2056 9.42889 12.5711 9.16667 11.8267 9.16667C11.0822 9.16667 10.4472 9.42889 9.92168 9.95333C9.39612 10.4778 9.1339 11.1133 9.13501 11.86C9.13612 12.6067 9.39835 13.2417 9.92168 13.765C10.445 14.2883 11.08 14.55 11.8267 14.55C12.5733 14.55 13.2083 14.2878 13.7317 13.7633" fill="#0D0202"/>
</svg>
