<svg width="40" height="40" viewBox="0 0 40 40" fill="none" xmlns="http://www.w3.org/2000/svg">
<path d="M7.69333 31.6668C6.92556 31.6668 6.285 31.4102 5.77167 30.8968C5.25833 30.3835 5.00111 29.7424 5 28.9735V11.0268C5 10.2591 5.25722 9.6185 5.77167 9.10516C6.28611 8.59183 6.92611 8.33461 7.69167 8.3335H32.3083C33.075 8.3335 33.715 8.59072 34.2283 9.10516C34.7417 9.61961 34.9989 10.2602 35 11.0268V28.9752C35 29.7418 34.7428 30.3824 34.2283 30.8968C33.7139 31.4113 33.0739 31.6679 32.3083 31.6668H7.69333ZM33.3333 11.4752L20.7467 19.7152C20.6289 19.7763 20.51 19.8279 20.39 19.8702C20.2689 19.9113 20.1389 19.9318 20 19.9318C19.8611 19.9318 19.7311 19.9113 19.61 19.8702C19.4889 19.8291 19.37 19.7774 19.2533 19.7152L6.66667 11.4735V28.9735C6.66667 29.2735 6.76278 29.5196 6.955 29.7118C7.14722 29.9041 7.39333 30.0002 7.69333 30.0002H32.3083C32.6072 30.0002 32.8528 29.9041 33.045 29.7118C33.2372 29.5196 33.3333 29.2735 33.3333 28.9735V11.4752ZM20 18.3335L32.82 10.0002H7.18L20 18.3335ZM6.66667 11.8268V10.4752V10.5318V10.0002V10.5335V10.4468V11.8268Z" fill="#0D0202"/>
</svg>
