<svg width="30" height="30" viewBox="0 0 30 30" fill="none" xmlns="http://www.w3.org/2000/svg">
<path d="M15.8333 15.645L20.48 20.2917C20.6356 20.4428 20.7133 20.6311 20.7133 20.8567C20.7133 21.0822 20.6356 21.2767 20.48 21.44C20.3178 21.6233 20.12 21.7094 19.8867 21.6983C19.6533 21.6872 19.455 21.6011 19.2917 21.44L14.57 16.7183C14.4256 16.5728 14.3222 16.4206 14.26 16.2617C14.1978 16.1028 14.1667 15.9378 14.1667 15.7667V9.03833C14.1667 8.80167 14.2467 8.60389 14.4067 8.445C14.5667 8.28611 14.765 8.20611 15.0017 8.205C15.2383 8.20389 15.4361 8.28389 15.595 8.445C15.7539 8.60611 15.8333 8.80389 15.8333 9.03833V15.645ZM14.405 4.76167C14.2461 4.60056 14.1667 4.40222 14.1667 4.16667V1.66667H15.8333V4.16667C15.8333 4.40333 15.7533 4.60111 15.5933 4.76C15.4333 4.91889 15.235 4.99889 14.9983 5C14.7617 5.00111 14.5639 4.92278 14.405 4.76167ZM25.2383 14.405C25.3994 14.2461 25.5978 14.1667 25.8333 14.1667H28.3333V15.8333H25.8333C25.5967 15.8333 25.3989 15.7533 25.24 15.5933C25.0811 15.4333 25.0011 15.235 25 14.9983C24.9989 14.7617 25.0772 14.5639 25.2383 14.405ZM15.595 25.2383C15.7539 25.3994 15.8333 25.5978 15.8333 25.8333V28.3333H14.1667V25.8333C14.1667 25.5967 14.2467 25.3989 14.4067 25.24C14.5667 25.0811 14.765 25.0011 15.0017 25C15.2383 24.9989 15.4361 25.0772 15.595 25.2383ZM4.76167 15.595C4.60167 15.7539 4.40333 15.8333 4.16667 15.8333H1.66667V14.1667H4.16667C4.40333 14.1667 4.60111 14.2467 4.76 14.4067C4.91889 14.5667 4.99889 14.765 5 15.0017C5.00111 15.2383 4.92278 15.4361 4.76167 15.595ZM15.005 30C12.9317 30 10.9817 29.6067 9.155 28.82C7.32944 28.0322 5.74111 26.9633 4.39 25.6133C3.03889 24.2633 1.96944 22.6767 1.18167 20.8533C0.393889 19.03 0 17.0806 0 15.005C0 12.9294 0.393889 10.9794 1.18167 9.155C1.96833 7.32944 3.03556 5.74111 4.38333 4.39C5.73111 3.03889 7.31833 1.96944 9.145 1.18167C10.9717 0.393889 12.9217 0 14.995 0C17.0683 0 19.0183 0.393889 20.845 1.18167C22.6706 1.96833 24.2589 3.03611 25.61 4.385C26.9611 5.73389 28.0306 7.32111 28.8183 9.14667C29.6061 10.9722 30 12.9217 30 14.995C30 17.0683 29.6067 19.0183 28.82 20.845C28.0333 22.6717 26.9644 24.26 25.6133 25.61C24.2622 26.96 22.6756 28.0294 20.8533 28.8183C19.0311 29.6072 17.0817 30.0011 15.005 30ZM28.3333 15C28.3333 11.2778 27.0417 8.125 24.4583 5.54167C21.875 2.95833 18.7222 1.66667 15 1.66667C11.2778 1.66667 8.125 2.95833 5.54167 5.54167C2.95833 8.125 1.66667 11.2778 1.66667 15C1.66667 18.7222 2.95833 21.875 5.54167 24.4583C8.125 27.0417 11.2778 28.3333 15 28.3333C18.7222 28.3333 21.875 27.0417 24.4583 24.4583C27.0417 21.875 28.3333 18.7222 28.3333 15Z" fill="#0D0202"/>
</svg>
