<svg width="40" height="40" viewBox="0 0 40 40" fill="none" xmlns="http://www.w3.org/2000/svg">
<path d="M8.45009 33.3332C7.94009 33.3332 7.51509 33.1665 7.17509 32.8332C6.83509 32.4998 6.66564 32.0832 6.66675 31.5832V27.5265C6.66675 27.0798 6.80786 26.6837 7.09009 26.3382C7.37231 25.9926 7.74009 25.7648 8.19342 25.6548L11.6984 24.9348C12.1095 24.8793 12.484 24.8982 12.8218 24.9915C13.1595 25.0848 13.4651 25.2776 13.7384 25.5698L17.3018 29.1982C18.6351 28.4593 19.8595 27.6737 20.9751 26.8415C22.0906 26.0082 23.1323 25.1082 24.1001 24.1415C25.0379 23.1882 25.9206 22.1787 26.7484 21.1132C27.5762 20.0476 28.3318 18.8943 29.0151 17.6532L25.3601 14.2432C25.0945 14.0209 24.9095 13.7359 24.8051 13.3882C24.7006 13.0404 24.6868 12.6332 24.7634 12.1665L25.5901 8.1915C25.7101 7.74484 25.939 7.37928 26.2768 7.09484C26.6134 6.80928 27.0084 6.6665 27.4618 6.6665H31.5834C32.0834 6.6665 32.5001 6.8365 32.8334 7.1765C33.1668 7.5165 33.3334 7.94039 33.3334 8.44817C33.3334 11.2582 32.6301 14.1332 31.2234 17.0732C29.8168 20.0132 27.8468 22.7548 25.3134 25.2982C22.7801 27.8415 20.039 29.8165 17.0901 31.2232C14.1412 32.6298 11.2606 33.3332 8.44842 33.3332M29.7884 16.0898C30.3462 14.8354 30.7873 13.5887 31.1118 12.3498C31.4362 11.1109 31.6151 9.92206 31.6484 8.78317C31.6484 8.65428 31.6056 8.54706 31.5201 8.4615C31.4345 8.37595 31.3273 8.33317 31.1984 8.33317H27.7884C27.6173 8.33317 27.4784 8.37595 27.3718 8.4615C27.2651 8.54706 27.1906 8.67484 27.1484 8.84484L26.3984 12.3782C26.3551 12.5059 26.3495 12.6448 26.3818 12.7948C26.414 12.9448 26.4834 13.0626 26.5901 13.1482L29.7884 16.0898ZM15.7051 29.9615L12.5718 26.7615C12.464 26.6559 12.3618 26.5871 12.2651 26.5548C12.1695 26.5215 12.0579 26.5271 11.9301 26.5715L8.84675 27.2115C8.67564 27.2537 8.54731 27.3282 8.46175 27.4348C8.3762 27.5426 8.33342 27.6815 8.33342 27.8515V31.1982C8.33342 31.3259 8.3762 31.4326 8.46175 31.5182C8.54731 31.6037 8.65398 31.6465 8.78175 31.6465C9.72842 31.6276 10.8373 31.4815 12.1084 31.2082C13.3795 30.9348 14.5784 30.5193 15.7051 29.9615Z" fill="#0D0202"/>
</svg>
