<svg width="29" height="29" viewBox="0 0 29 29" fill="none" xmlns="http://www.w3.org/2000/svg">
<path d="M8.59 15.6417H9.87167V12.3083H11.9217C12.2883 12.3083 12.5939 12.1861 12.8383 11.9417C13.0828 11.6972 13.205 11.3917 13.205 11.025V8.975C13.205 8.60834 13.0828 8.30278 12.8383 8.05834C12.5939 7.81389 12.2883 7.69167 11.9217 7.69167H8.58834L8.59 15.6417ZM9.87167 11.025V8.975H11.9217V11.025H9.87167ZM14.9367 15.6417H18.1417C18.5072 15.6417 18.8122 15.5194 19.0567 15.275C19.3011 15.0306 19.4233 14.725 19.4233 14.3583V8.975C19.4233 8.60834 19.3011 8.30278 19.0567 8.05834C18.8122 7.81389 18.5067 7.69167 18.14 7.69167H14.935L14.9367 15.6417ZM16.2183 14.3583V8.975H18.1417V14.3583H16.2183ZM21.475 15.6417H22.7567V12.3083H25.065V11.025H22.7567V8.975H25.065V7.69167H21.475V15.6417ZM7.69167 23.3333C6.925 23.3333 6.285 23.0767 5.77167 22.5633C5.25834 22.05 5.00111 21.4094 5 20.6417V2.69167C5 1.925 5.25723 1.28445 5.77167 0.770003C6.28611 0.255559 6.92667 -0.00110752 7.69334 3.59196e-06H25.6417C26.4083 3.59196e-06 27.0489 0.25667 27.5633 0.770003C28.0778 1.28334 28.3344 1.92389 28.3333 2.69167V20.6417C28.3333 21.4083 28.0767 22.0483 27.5633 22.5617C27.05 23.075 26.4089 23.3322 25.64 23.3333H7.69167ZM7.69167 21.6667H25.6417C25.8972 21.6667 26.1322 21.56 26.3467 21.3467C26.5611 21.1333 26.6678 20.8983 26.6667 20.6417V2.69167C26.6667 2.43611 26.56 2.20111 26.3467 1.98667C26.1333 1.77223 25.8978 1.66556 25.64 1.66667H7.69334C7.43667 1.66667 7.20111 1.77334 6.98667 1.98667C6.77223 2.2 6.66556 2.435 6.66667 2.69167V20.6417C6.66667 20.8972 6.77334 21.1322 6.98667 21.3467C7.2 21.5611 7.435 21.6678 7.69167 21.6667ZM2.69167 28.3333C1.925 28.3333 1.28445 28.0767 0.770003 27.5633C0.255559 27.05 -0.00110752 26.4094 3.59196e-06 25.6417V6.025H1.66667V25.6417C1.66667 25.8972 1.77334 26.1322 1.98667 26.3467C2.2 26.5611 2.435 26.6678 2.69167 26.6667H22.3083V28.3333H2.69167Z" fill="#0D0202"/>
</svg>
