<svg width="50" height="50" viewBox="0 0 50 50" fill="none" xmlns="http://www.w3.org/2000/svg">
<rect x="0.5" y="0.5" width="49" height="49" rx="24.5" stroke="#0D0202"/>
<path d="M21.5 33.29C20.4053 32.816 19.452 32.1727 18.64 31.36C17.828 30.5473 17.1847 29.594 16.71 28.5C16.2353 27.406 15.9987 26.2383 16 24.997C16.0013 23.7557 16.238 22.589 16.71 21.497C17.182 20.405 17.8253 19.4527 18.64 18.64C19.4547 17.8273 20.408 17.184 21.5 16.71C22.5947 16.2367 23.7623 16 25.003 16C26.243 16 27.4097 16.2367 28.503 16.71C29.5963 17.184 30.549 17.8273 31.361 18.64C32.173 19.4527 32.816 20.405 33.29 21.497C33.7633 22.5903 34 23.757 34 24.997C34 26.237 33.7633 27.4047 33.29 28.5C32.816 29.5947 32.1727 30.548 31.36 31.36C30.5473 32.172 29.595 32.8153 28.503 33.29C27.411 33.7647 26.2443 34.0013 25.003 34C23.7617 33.9987 22.594 33.762 21.5 33.29ZM25 33.008C25.5867 32.254 26.0707 31.5137 26.452 30.787C26.8327 30.0603 27.1423 29.247 27.381 28.347H22.619C22.8837 29.2977 23.1997 30.1367 23.567 30.864C23.935 31.5907 24.4127 32.3053 25 33.008ZM23.727 32.858C23.2603 32.308 22.8343 31.628 22.449 30.818C22.0637 30.0087 21.777 29.1847 21.589 28.346H17.754C18.3273 29.5893 19.1397 30.6093 20.191 31.406C21.243 32.202 22.4217 32.686 23.727 32.858ZM26.273 32.858C27.5783 32.686 28.757 32.202 29.809 31.406C30.8603 30.6093 31.6727 29.5893 32.246 28.346H28.412C28.1587 29.1973 27.8397 30.0277 27.455 30.837C27.0697 31.647 26.6757 32.3213 26.273 32.858ZM17.346 27.347H21.381C21.305 26.9363 21.2517 26.5363 21.221 26.147C21.189 25.7583 21.173 25.376 21.173 25C21.173 24.624 21.1887 24.2417 21.22 23.853C21.2513 23.4643 21.3047 23.0643 21.38 22.653H17.347C17.2383 22.9997 17.1533 23.3773 17.092 23.786C17.0307 24.194 17 24.5987 17 25C17 25.4013 17.0303 25.8063 17.091 26.215C17.1517 26.6237 17.2367 27.0007 17.346 27.346M22.381 27.346H27.619C27.695 26.936 27.7483 26.5427 27.779 26.166C27.811 25.79 27.827 25.4013 27.827 25C27.827 24.5987 27.8113 24.21 27.78 23.834C27.7487 23.458 27.6953 23.0647 27.62 22.654H22.38C22.3047 23.064 22.2513 23.4573 22.22 23.834C22.1887 24.21 22.173 24.5987 22.173 25C22.173 25.4013 22.1887 25.79 22.22 26.166C22.2513 26.542 22.3057 26.9353 22.381 27.346ZM28.62 27.346H32.654C32.7627 27 32.8477 26.623 32.909 26.215C32.9697 25.8063 33 25.4013 33 25C33 24.5987 32.9697 24.1937 32.909 23.785C32.8483 23.3763 32.7633 22.9993 32.654 22.654H28.619C28.695 23.064 28.7483 23.4637 28.779 23.853C28.811 24.2423 28.827 24.6247 28.827 25C28.827 25.3753 28.8113 25.7577 28.78 26.147C28.7487 26.5363 28.6953 26.9363 28.62 27.347M28.412 21.654H32.246C31.66 20.3847 30.8573 19.3647 29.838 18.594C28.8187 17.8233 27.6303 17.333 26.273 17.123C26.7397 17.737 27.1593 18.4393 27.532 19.23C27.9047 20.02 28.198 20.828 28.412 21.654ZM22.619 21.654H27.381C27.117 20.7153 26.7913 19.8667 26.404 19.108C26.0167 18.3493 25.5487 17.644 25 16.992C24.4513 17.6433 23.9833 18.3487 23.596 19.108C23.2087 19.8673 22.8823 20.716 22.619 21.654ZM17.755 21.654H21.589C21.803 20.8287 22.0963 20.0207 22.469 19.23C22.8417 18.4393 23.2613 17.737 23.728 17.123C22.3587 17.3337 21.1673 17.827 20.154 18.603C19.1407 19.3803 18.3407 20.397 17.754 21.653" fill="#0D0202"/>
</svg>
