<svg width="80" height="80" viewBox="0 0 80 80" fill="none" xmlns="http://www.w3.org/2000/svg">
<path d="M33.3333 51.9233L51.9233 40L33.3333 28.0767V51.9233ZM40.01 70C35.8633 70 31.9633 69.2133 28.31 67.64C24.6589 66.0644 21.4822 63.9267 18.78 61.2267C16.0778 58.5267 13.9389 55.3533 12.3633 51.7067C10.7878 48.06 10 44.1611 10 40.01C10 35.8589 10.7878 31.9589 12.3633 28.31C13.9367 24.6589 16.0711 21.4822 18.7667 18.78C21.4622 16.0778 24.6367 13.9389 28.29 12.3633C31.9433 10.7878 35.8433 10 39.99 10C44.1367 10 48.0367 10.7878 51.69 12.3633C55.3411 13.9367 58.5178 16.0722 61.22 18.77C63.9222 21.4678 66.0611 24.6422 67.6367 28.2933C69.2122 31.9444 70 35.8433 70 39.99C70 44.1367 69.2133 48.0367 67.64 51.69C66.0667 55.3433 63.9289 58.52 61.2267 61.22C58.5244 63.92 55.3511 66.0589 51.7067 67.6367C48.0622 69.2144 44.1633 70.0022 40.01 70ZM40 66.6667C47.4444 66.6667 53.75 64.0833 58.9167 58.9167C64.0833 53.75 66.6667 47.4444 66.6667 40C66.6667 32.5556 64.0833 26.25 58.9167 21.0833C53.75 15.9167 47.4444 13.3333 40 13.3333C32.5556 13.3333 26.25 15.9167 21.0833 21.0833C15.9167 26.25 13.3333 32.5556 13.3333 40C13.3333 47.4444 15.9167 53.75 21.0833 58.9167C26.25 64.0833 32.5556 66.6667 40 66.6667Z" fill="#FAFAFA"/>
</svg>
